<svg width="161" height="43" viewBox="0 0 161 43" fill="none" xmlns="http://www.w3.org/2000/svg">
  <path d="M49.284 0.468001H52.92V25.668H49.284V14.616H42.156V25.668H38.52V0.468001H42.156V11.196H49.284V0.468001ZM68.5454 26.136C63.7214 26.136 60.8414 22.932 60.8414 17.676V8.46C60.8414 3.204 63.7214 9.53674e-07 68.5454 9.53674e-07C73.3694 9.53674e-07 76.2494 3.204 76.2494 8.46V17.676C76.2494 22.932 73.3694 26.136 68.5454 26.136ZM68.5454 22.572C71.1374 22.572 72.5054 20.844 72.5054 17.676V8.46C72.5054 5.292 71.1374 3.564 68.5454 3.564C65.9174 3.564 64.5854 5.292 64.5854 8.46V17.676C64.5854 20.844 65.9174 22.572 68.5454 22.572ZM84.1809 25.668V0.468001H90.4449C95.3409 0.468001 98.2209 3.348 98.2209 8.316V17.748C98.2209 22.752 95.3409 25.668 90.4809 25.668H84.1809ZM87.8169 22.212H90.4809C93.0729 22.212 94.5489 20.664 94.5489 17.676V8.388C94.5489 5.436 93.1089 3.924 90.4809 3.924H87.8169V22.212ZM109.769 22.212H118.121V25.668H106.133V0.468001H109.769V22.212ZM128.134 22.248H137.206V25.668H124.498V0.468001H136.846V3.888H128.134V11.196H136.162V14.544H128.134V22.248ZM155.672 25.668L150.596 16.524H148.328V25.668H144.692V0.468001H151.208C156.032 0.468001 158.768 3.348 158.768 8.352C158.768 12.276 157.112 14.976 154.232 16.02L159.704 25.668H155.672ZM148.328 3.924V13.068H151.136C153.692 13.068 155.024 11.412 155.024 8.424C155.024 5.436 153.692 3.924 151.172 3.924H148.328Z" fill="#161616" />
  <path opacity="0.7" d="M37.9588 42.668V33.9407H43.4304V35.0743H39.2756V37.7333H43.1449V38.8626H39.2756V41.5345H43.4815V42.668H37.9588ZM54.2655 33.9407L56.3535 37.3541H56.4217L58.5098 33.9407H60.0354L57.3166 38.3044L60.0524 42.668H58.5183L56.4217 39.3015H56.3535L54.2569 42.668H52.7229L55.5055 38.3044L52.7399 33.9407H54.2655ZM76.5157 36.7788H75.1861C75.135 36.4947 75.0398 36.2447 74.9006 36.0288C74.7614 35.8129 74.591 35.6297 74.3892 35.4791C74.1875 35.3285 73.9617 35.2149 73.7117 35.1382C73.4645 35.0615 73.2017 35.0231 72.9233 35.0231C72.4205 35.0231 71.9702 35.1495 71.5725 35.4024C71.1776 35.6552 70.8651 36.026 70.635 36.5146C70.4077 37.0032 70.2941 37.5998 70.2941 38.3044C70.2941 39.0146 70.4077 39.614 70.635 40.1027C70.8651 40.5913 71.179 40.9606 71.5767 41.2106C71.9745 41.4606 72.4219 41.5856 72.9191 41.5856C73.1946 41.5856 73.456 41.5487 73.7032 41.4748C73.9532 41.3981 74.179 41.2859 74.3807 41.1382C74.5824 40.9904 74.7529 40.81 74.8921 40.597C75.0341 40.3811 75.1321 40.1339 75.1861 39.8555L76.5157 39.8598C76.4446 40.2887 76.3069 40.6836 76.1023 41.0444C75.9006 41.4024 75.6407 41.712 75.3225 41.9734C75.0071 42.2319 74.6463 42.4322 74.2401 42.5743C73.8338 42.7163 73.3907 42.7873 72.9106 42.7873C72.1549 42.7873 71.4816 42.6083 70.8907 42.2504C70.2998 41.8896 69.8338 41.374 69.4929 40.7035C69.1549 40.0331 68.9858 39.2333 68.9858 38.3044C68.9858 37.3725 69.1563 36.5728 69.4972 35.9052C69.8381 35.2348 70.304 34.7206 70.8949 34.3626C71.4858 34.0018 72.1577 33.8214 72.9106 33.8214C73.3736 33.8214 73.8054 33.8882 74.206 34.0217C74.6094 34.1524 74.9716 34.3456 75.2927 34.6012C75.6137 34.8541 75.8793 35.1637 76.0895 35.5302C76.2998 35.8939 76.4418 36.31 76.5157 36.7788ZM86.2513 42.668V33.9407H87.5681V37.7333H91.9189V33.9407H93.2399V42.668H91.9189V38.8626H87.5681V42.668H86.2513ZM104.055 42.668H102.657L105.798 33.9407H107.319L110.46 42.668H109.062L106.595 35.526H106.526L104.055 42.668ZM104.289 39.2504H108.823V40.3583H104.289V39.2504ZM126.924 33.9407V42.668H125.714L121.278 36.2674H121.197V42.668H119.88V33.9407H121.099L125.539 40.3498H125.62V33.9407H126.924ZM142.911 36.6978C142.829 36.4393 142.718 36.2078 142.579 36.0032C142.442 35.7958 142.279 35.6197 142.089 35.4748C141.898 35.3271 141.681 35.2149 141.437 35.1382C141.195 35.0615 140.929 35.0231 140.64 35.0231C140.148 35.0231 139.705 35.1495 139.31 35.4024C138.915 35.6552 138.603 36.026 138.373 36.5146C138.145 37.0004 138.032 37.5956 138.032 38.3001C138.032 39.0075 138.147 39.6055 138.377 40.0941C138.607 40.5828 138.922 40.9535 139.323 41.2064C139.723 41.4592 140.179 41.5856 140.691 41.5856C141.165 41.5856 141.579 41.489 141.931 41.2958C142.286 41.1027 142.56 40.8299 142.753 40.4777C142.949 40.1225 143.047 39.7049 143.047 39.2248L143.388 39.2887H140.891V38.2021H144.322V39.195C144.322 39.9279 144.165 40.5643 143.853 41.1041C143.543 41.641 143.114 42.0558 142.566 42.3484C142.02 42.641 141.395 42.7873 140.691 42.7873C139.901 42.7873 139.208 42.6055 138.611 42.2419C138.018 41.8782 137.554 41.3626 137.222 40.695C136.89 40.0245 136.723 39.2291 136.723 38.3086C136.723 37.6126 136.82 36.9876 137.013 36.4336C137.206 35.8797 137.478 35.4095 137.827 35.0231C138.179 34.6339 138.593 34.337 139.067 34.1325C139.545 33.9251 140.066 33.8214 140.631 33.8214C141.103 33.8214 141.542 33.891 141.948 34.0302C142.357 34.1694 142.721 34.3669 143.039 34.6225C143.36 34.8782 143.625 35.1822 143.836 35.5345C144.046 35.8839 144.188 36.2717 144.262 36.6978H142.911ZM154.153 42.668V33.9407H159.625V35.0743H155.47V37.7333H159.339V38.8626H155.47V41.5345H159.676V42.668H154.153Z" fill="#161616" />
  <g clip-path="url(#clip0_420_10881)">
    <mask id="mask0_420_10881" style="mask-type:luminance" maskUnits="userSpaceOnUse" x="11" y="1" width="9" height="23">
      <path d="M20.0001 1.71043H11.3044V23.8854C13.733 23.8854 14.9474 23.8854 15.9236 23.5363C17.6719 22.9109 19.0467 21.5057 19.6585 19.7183C20.0001 18.7204 20.0001 17.4792 20.0001 14.9966V1.71043Z" fill="white" />
    </mask>
    <g mask="url(#mask0_420_10881)">
      <path d="M11.3044 28.3299H13.9131C19.6761 28.3299 24.3479 23.5543 24.3479 17.6632H15.6523C15.6523 18.6451 14.8737 19.441 13.9131 19.441H11.3044V28.3299ZM13.9131 28.3299C19.6761 28.3299 24.3479 23.5543 24.3479 17.6632V1.71043H15.6523V17.6632C15.6523 18.6451 14.8737 19.441 13.9131 19.441V28.3299Z" fill="#161616" />
    </g>
    <path opacity="0.5" d="M0 19.3436C0.646659 18.6689 1.44311 18.1449 2.33738 17.825C2.87877 17.6313 3.49342 17.5453 4.34783 17.5069V1.668H0V19.3436Z" fill="#161616" />
    <path opacity="0.5" d="M19.9999 23.9925C19.3533 24.6671 18.5568 25.1911 17.6625 25.511C17.1211 25.7047 16.5064 25.7907 15.6521 25.8291V41.668H19.9999V23.9925Z" fill="#161616" />
    <mask id="mask1_420_10881" style="mask-type:luminance" maskUnits="userSpaceOnUse" x="0" y="19" width="9" height="23">
      <path d="M0 41.6256H8.69565V19.4506C6.26704 19.4506 5.05274 19.4506 4.07656 19.7997C2.3281 20.4251 0.953392 21.8303 0.341579 23.6177C0 24.6156 0 25.8568 0 28.3394V41.6256Z" fill="white" />
    </mask>
    <g mask="url(#mask1_420_10881)">
      <path d="M8.69558 15.0061H6.08688C0.32391 15.0061 -4.3479 19.7817 -4.3479 25.6728H4.34775C4.34775 24.6909 5.12638 23.895 6.08688 23.895H8.69558V15.0061ZM6.08688 15.0061C0.32391 15.0061 -4.3479 19.7817 -4.3479 25.6728V41.6256H4.34775V25.6728C4.34775 24.6909 5.12638 23.895 6.08688 23.895V15.0061Z" fill="#161616" />
    </g>
  </g>
  <defs>
    <clipPath id="clip0_420_10881">
      <rect width="20" height="40" fill="white" transform="translate(0 1.668)" />
    </clipPath>
  </defs>
</svg>