<svg width="20" height="20" viewBox="0 0 20 20" fill="none" xmlns="http://www.w3.org/2000/svg">
  <path fill-rule="evenodd" clip-rule="evenodd" d="M19.5016 13.1259C18.1891 17.1175 14.4308 20 9.99996 20C5.56912 20 1.81079 17.1175 0.498291 13.1259H19.5016Z" fill="#F1002C" />
  <path fill-rule="evenodd" clip-rule="evenodd" d="M19.5017 6.87415C19.8327 7.88303 20.0009 8.93819 20 9.99998C20 11.0916 19.825 12.1416 19.5017 13.125H0.498336C0.167416 12.1164 -0.000800444 11.0615 2.86352e-06 9.99998C2.86352e-06 8.90831 0.175003 7.85831 0.498336 6.87415H19.5017Z" fill="#0052B4" />
  <path fill-rule="evenodd" clip-rule="evenodd" d="M9.99996 0C14.4316 0 18.19 2.88333 19.5016 6.875H0.498291C1.80996 2.88333 5.56829 0 9.99996 0Z" fill="#F0F0F0" />
</svg>