<svg width="48" height="24" viewBox="0 0 48 24" fill="none" xmlns="http://www.w3.org/2000/svg">
  <g clip-path="url(#clip0_874_6702)">
    <path d="M41.5053 6.85074V12.7183H39.4013V8.60234H37.3755V12.7183H35.2715V6.85034H41.5053V6.85074Z" fill="black" />
    <path fill-rule="evenodd" clip-rule="evenodd" d="M30.9512 12.9281C32.8347 12.9281 34.2333 11.7781 34.2333 10.0347C34.2333 8.34733 33.2014 7.25173 31.4768 7.25173C30.6809 7.25173 30.0242 7.53073 29.5295 8.01213C29.6476 7.01713 30.4925 6.29073 31.4228 6.29073C31.6375 6.29073 33.2538 6.28733 33.2538 6.28733L34.1678 4.54553C34.1678 4.54553 32.1386 4.59153 31.1952 4.59153C29.0399 4.62893 27.584 6.57993 27.584 8.94953C27.584 11.7101 29.0039 12.9281 30.9512 12.9281ZM30.9627 8.79453C31.662 8.79453 32.1468 9.25213 32.1468 10.0345C32.1468 10.7387 31.716 11.3189 30.9627 11.3205C30.2421 11.3205 29.7572 10.7829 29.7572 10.0465C29.7572 9.26393 30.2421 8.79453 30.9627 8.79453Z" fill="black" />
    <path d="M25.8717 10.754C25.8717 10.754 25.3748 11.0392 24.6327 11.0932C23.7796 11.1184 23.0194 10.5818 23.0194 9.62836C23.0194 8.69836 23.6902 8.16536 24.6112 8.16536C25.176 8.16536 25.9231 8.55516 25.9231 8.55516C25.9231 8.55516 26.4698 7.55616 26.753 7.05656C26.2344 6.66516 25.5437 6.45056 24.7404 6.45056C22.7129 6.45056 21.1426 7.76696 21.1426 9.61656C21.1426 11.4898 22.6185 12.7756 24.7404 12.7368C25.3334 12.7148 26.1516 12.5074 26.6503 12.1884L25.8717 10.754Z" fill="black" />
    <path d="M0 5.224L2.91856 10.419V13.5878L0.00341423 18.7726L0 5.224Z" fill="#5B57A2" />
    <path d="M11.207 8.52859L13.9418 6.85939L19.5387 6.85419L11.207 11.937V8.52859Z" fill="#D90751" />
    <path d="M11.1912 5.1934L11.2066 12.0714L8.28125 10.2814V0L11.1912 5.1934Z" fill="#FAB718" />
    <path d="M19.5384 6.8542L13.9412 6.8594L11.1912 5.1934L8.28125 0L19.5384 6.8542Z" fill="#ED6F26" />
    <path d="M11.2066 18.8014V15.4644L8.28125 13.7084L8.28286 24L11.2066 18.8014Z" fill="#63B22F" />
    <path d="M13.9341 17.1474L2.91836 10.419L0 5.224L19.526 17.1406L13.9341 17.1474Z" fill="#1487C9" />
    <path d="M8.2832 24L11.2066 18.8014L13.9345 17.1474L19.5264 17.1406L8.2832 24Z" fill="#017F36" />
    <path d="M0.00390625 18.7726L8.30509 13.7086L5.51427 12.0034L2.91905 13.5878L0.00390625 18.7726Z" fill="#984995" />
    <path d="M23.019 16.6674C22.9547 16.749 22.8702 16.8106 22.7687 16.8522C22.6647 16.8944 22.5533 16.9158 22.441 16.9154C22.3292 16.9169 22.2181 16.8983 22.113 16.8606C22.0186 16.8264 21.9323 16.7732 21.8596 16.7042C21.7877 16.6351 21.7313 16.5516 21.6941 16.4594C21.6537 16.3583 21.6336 16.2503 21.6348 16.1416C21.6348 16.0336 21.6535 15.9336 21.6923 15.8388C21.7294 15.7438 21.7834 15.6624 21.8511 15.594C21.9188 15.5242 21.9999 15.471 22.0911 15.4294C22.1841 15.3894 22.2855 15.3678 22.397 15.3678C22.5171 15.3678 22.6286 15.3828 22.73 15.4126C22.8314 15.4426 22.9176 15.4926 22.9885 15.5626L22.8651 15.7706C22.8055 15.7167 22.7353 15.6759 22.6589 15.6506C22.5863 15.6273 22.5104 15.6155 22.4341 15.6158C22.3667 15.6158 22.3024 15.629 22.2399 15.654C22.1784 15.6787 22.1221 15.7148 22.0742 15.7606C22.0253 15.8076 21.9867 15.8643 21.961 15.927C21.9323 15.9918 21.9188 16.0634 21.9188 16.1432C21.9188 16.2248 21.9339 16.298 21.9626 16.3612C21.9915 16.4262 22.0303 16.4812 22.0793 16.5276C22.1283 16.5744 22.1857 16.6092 22.2516 16.6326C22.3177 16.6576 22.387 16.6692 22.4613 16.6692C22.5524 16.6692 22.6354 16.6508 22.7063 16.6158C22.7765 16.582 22.8397 16.5351 22.8923 16.4778L23.019 16.6674ZM23.367 16.8804V15.3994H23.6341V16.5028L24.5028 15.3994H24.7699V16.8806H24.5028V15.7772L23.6341 16.8806L23.367 16.8804ZM26.5393 16.6674C26.4735 16.7497 26.3873 16.8134 26.2892 16.8522C26.1851 16.8943 26.0737 16.9158 25.9612 16.9154C25.8496 16.9169 25.7385 16.8983 25.6335 16.8606C25.539 16.8264 25.4526 16.7732 25.3798 16.7042C25.308 16.6351 25.2516 16.5516 25.2143 16.4594C25.174 16.3583 25.1539 16.2503 25.1551 16.1416C25.1551 16.0336 25.1738 15.9336 25.2125 15.8388C25.2499 15.7438 25.3039 15.6624 25.3714 15.594C25.4391 15.5242 25.5202 15.471 25.6114 15.4294C25.7077 15.3871 25.812 15.3661 25.9173 15.3678C26.0374 15.3678 26.1488 15.3828 26.2503 15.4126C26.3517 15.4426 26.4378 15.4926 26.5089 15.5626L26.3854 15.7706C26.3259 15.7167 26.2557 15.6758 26.1794 15.6506C26.1067 15.6273 26.0309 15.6155 25.9546 15.6158C25.8204 15.6162 25.6914 15.668 25.5945 15.7606C25.546 15.808 25.5075 15.8645 25.4812 15.927C25.4525 15.9918 25.4391 16.0634 25.4391 16.1432C25.4391 16.2248 25.4543 16.298 25.4831 16.3612C25.5118 16.4262 25.5505 16.4812 25.5995 16.5276C25.6485 16.5744 25.7062 16.6092 25.7721 16.6326C25.8379 16.6558 25.9072 16.6692 25.9815 16.6692C26.0729 16.6692 26.154 16.6508 26.2265 16.6158C26.2968 16.582 26.3599 16.5351 26.4125 16.4778L26.5393 16.6674ZM26.6762 15.3994H28.0467V15.6624H27.4958V16.8804H27.2287V15.6624H26.6778V15.3994H26.6762Z" fill="black" />
    <path fill-rule="evenodd" clip-rule="evenodd" d="M29.2942 16.8656C29.3956 16.834 29.4818 16.7856 29.5561 16.7192L29.475 16.5128C29.426 16.5562 29.3601 16.5928 29.2808 16.6228C29.2012 16.6528 29.1116 16.6676 29.0136 16.6676C28.8666 16.6676 28.7449 16.6294 28.6485 16.5512C28.5523 16.4728 28.4999 16.3632 28.4881 16.2232H29.6441C29.6559 16.1716 29.6609 16.1134 29.6609 16.0452C29.6609 15.9436 29.6423 15.8522 29.6051 15.769C29.5705 15.6882 29.52 15.6151 29.4565 15.5542C29.3921 15.4938 29.3162 15.4469 29.2334 15.4162C29.1466 15.3826 29.0543 15.3657 28.9612 15.3662C28.8361 15.3662 28.7262 15.3878 28.63 15.4278C28.5391 15.4659 28.4568 15.5219 28.3882 15.5926C28.3216 15.6628 28.2705 15.7461 28.238 15.8372C28.2023 15.9341 28.1845 16.0367 28.1856 16.14C28.1856 16.2566 28.2059 16.363 28.243 16.458C28.2792 16.55 28.3345 16.6333 28.4053 16.7026C28.4746 16.7706 28.5589 16.8224 28.6588 16.859C28.7656 16.8967 28.8784 16.9153 28.9918 16.9138C29.0944 16.9131 29.1964 16.8967 29.2942 16.8656ZM28.6182 15.7256C28.7009 15.6508 28.8108 15.6142 28.9494 15.6142C29.0795 15.6142 29.1844 15.6492 29.2605 15.7192C29.3366 15.789 29.377 15.8856 29.3838 16.0086H28.4712C28.4841 15.8997 28.5364 15.7989 28.6182 15.7256Z" fill="black" />
    <path d="M30.0254 15.3994H30.2688L30.8468 16.1334L31.3943 15.3994H31.6309V16.8806H31.364V15.8006L30.8434 16.4878H30.8332L30.2925 15.8004V16.8804H30.0254V15.3994Z" fill="black" />
    <path fill-rule="evenodd" clip-rule="evenodd" d="M32.3562 15.4044C32.2752 15.4254 32.1977 15.4585 32.1265 15.5024L32.1974 15.7124C32.2582 15.6824 32.3191 15.6574 32.3799 15.6358C32.4408 15.614 32.5185 15.604 32.6115 15.604C32.6858 15.604 32.7451 15.6158 32.7907 15.639C32.8362 15.6606 32.87 15.694 32.8937 15.734C32.9174 15.774 32.9326 15.8238 32.9411 15.882C32.9495 15.9402 32.9529 16.0034 32.9529 16.0718C32.8983 16.0338 32.836 16.0082 32.7704 15.9968C32.7069 15.9842 32.6424 15.9775 32.5778 15.9768C32.4982 15.9768 32.4239 15.9886 32.3528 16.0084C32.2819 16.0284 32.2211 16.0584 32.1721 16.0984C32.1221 16.1383 32.0816 16.1889 32.0538 16.2464C32.024 16.3093 32.009 16.3782 32.0098 16.4478C32.0098 16.5926 32.0522 16.7058 32.1365 16.7858C32.2211 16.8656 32.3325 16.9054 32.4711 16.9054C32.5962 16.9054 32.6961 16.8838 32.772 16.8406C32.8481 16.7972 32.9089 16.7474 32.9529 16.6908V16.8822H33.203V15.9736C33.203 15.7804 33.1608 15.6308 33.0746 15.5258C32.9901 15.421 32.8397 15.3678 32.6268 15.3678C32.532 15.3678 32.4424 15.381 32.3562 15.4044ZM32.8027 16.6044C32.7418 16.6476 32.6623 16.6674 32.5643 16.6674C32.4781 16.6674 32.4105 16.6458 32.3633 16.6042C32.3159 16.561 32.2922 16.5044 32.2922 16.4344C32.2922 16.393 32.3006 16.358 32.3193 16.3264C32.338 16.2948 32.3633 16.2698 32.392 16.2498C32.4234 16.2288 32.4583 16.2136 32.495 16.2048C32.534 16.1948 32.5727 16.1898 32.6133 16.1898C32.7453 16.1898 32.8583 16.2214 32.9513 16.288V16.476C32.9075 16.5249 32.8576 16.5681 32.8027 16.6044ZM35.5608 14.8784C35.6148 14.8536 35.6654 14.812 35.7128 14.7504L35.5674 14.5424C35.5303 14.5924 35.4881 14.6272 35.4407 14.6456C35.3905 14.6651 35.3384 14.6796 35.2852 14.6888L35.2346 14.6978C35.1907 14.7054 35.1435 14.7138 35.0926 14.7222C35.0112 14.7372 34.9317 14.7617 34.8561 14.7954C34.736 14.847 34.6398 14.9168 34.5671 15.005C34.4944 15.0932 34.4369 15.193 34.3979 15.303C34.3585 15.4144 34.3319 15.5299 34.3186 15.6474C34.305 15.7674 34.2983 15.882 34.2983 15.9918C34.2983 16.1334 34.3168 16.2614 34.354 16.3762C34.3913 16.4912 34.4435 16.5876 34.5128 16.6658C34.5821 16.7458 34.6651 16.8058 34.7631 16.849C34.8611 16.8922 34.9709 16.9138 35.0942 16.9138C35.2075 16.9138 35.3124 16.8922 35.407 16.8522C35.4981 16.8137 35.5809 16.7578 35.6504 16.6876C35.7178 16.6192 35.7721 16.5376 35.8092 16.4462C35.848 16.3546 35.8667 16.2564 35.8667 16.1532C35.8667 16.0418 35.8498 15.9404 35.8177 15.8504C35.7881 15.7646 35.7409 15.6858 35.6791 15.6192C35.6172 15.5536 35.5415 15.5024 35.4576 15.4692C35.3651 15.4329 35.2664 15.4148 35.167 15.416C35.1027 15.416 35.0402 15.4244 34.9794 15.441C34.9202 15.4576 34.8634 15.4816 34.8103 15.5126C34.7588 15.5419 34.7116 15.5783 34.6701 15.6206C34.6295 15.6624 34.5958 15.709 34.5721 15.7622H34.5652C34.5705 15.694 34.5789 15.6242 34.594 15.5526C34.6092 15.481 34.6311 15.4126 34.66 15.3478C34.6888 15.283 34.7259 15.2246 34.7715 15.1714C34.8204 15.1177 34.8803 15.0751 34.9472 15.0466C35.0208 15.0117 35.0987 14.9865 35.1788 14.9718L35.2318 14.9622C35.2846 14.9526 35.3351 14.9434 35.3833 14.9334C35.4475 14.9202 35.5066 14.9032 35.5608 14.8784ZM34.6211 16.3014C34.5949 16.2173 34.5824 16.1297 34.5839 16.0418C34.5952 15.9913 34.6159 15.9433 34.6448 15.9004C34.6735 15.8554 34.7107 15.8156 34.7546 15.7804C34.8539 15.7029 34.9766 15.6613 35.1027 15.6624C35.2599 15.6624 35.3782 15.7106 35.461 15.8056C35.5439 15.902 35.5845 16.0218 35.5845 16.1666C35.5845 16.2382 35.5708 16.3032 35.5473 16.363C35.5245 16.4219 35.49 16.4758 35.4459 16.5212C35.4017 16.5667 35.3489 16.6028 35.2905 16.6276C35.2296 16.6542 35.1635 16.6676 35.0892 16.6676C35.0149 16.6676 34.9472 16.6526 34.8848 16.6226C34.8227 16.5932 34.7679 16.5506 34.7241 16.4978C34.6783 16.4389 34.6434 16.3724 34.6211 16.3014ZM37.915 15.3994H37.6479V16.8806H37.915V15.3994ZM36.2519 15.3994H36.519V15.8438H36.7658C36.8823 15.8438 36.9769 15.8588 37.053 15.887C37.1291 15.9154 37.19 15.9536 37.2356 16.0002C37.2812 16.0468 37.3133 16.1018 37.332 16.1632C37.3505 16.2248 37.3607 16.288 37.3607 16.3546C37.3607 16.4212 37.3505 16.4846 37.3286 16.5478C37.3083 16.611 37.2727 16.6658 37.2253 16.7158C37.1781 16.7658 37.1139 16.8058 37.0327 16.8358C36.9516 16.8656 36.8536 16.8822 36.7353 16.8822H36.2503V15.3994H36.2519ZM36.519 16.0916V16.6342H36.7134C36.847 16.6342 36.9415 16.611 36.9956 16.5642C37.0498 16.5176 37.0767 16.4512 37.0767 16.363C37.0767 16.273 37.048 16.205 36.994 16.1582C36.9381 16.1116 36.8451 16.0882 36.7168 16.0882H36.519V16.0916Z" fill="black" />
    <path d="M39.6811 16.6674C39.6168 16.749 39.5323 16.8106 39.4309 16.8522C39.3268 16.8943 39.2154 16.9158 39.1031 16.9154C38.9913 16.9169 38.8802 16.8983 38.7751 16.8606C38.6807 16.8265 38.5944 16.7732 38.5217 16.7042C38.4498 16.635 38.3934 16.5516 38.356 16.4594C38.3158 16.3583 38.2957 16.2503 38.2969 16.1416C38.2969 16.0336 38.3154 15.9336 38.3544 15.8388C38.3915 15.7438 38.4455 15.6624 38.5132 15.594C38.5809 15.5242 38.6618 15.471 38.7532 15.4294C38.8495 15.3871 38.9539 15.3661 39.0591 15.3678C39.179 15.3678 39.2907 15.3828 39.3921 15.4126C39.4935 15.4426 39.5797 15.4926 39.6506 15.5626L39.5273 15.7706C39.4676 15.7167 39.3974 15.6759 39.321 15.6506C39.2484 15.6273 39.1725 15.6155 39.0963 15.6158C39.0288 15.6158 38.9645 15.629 38.9018 15.654C38.8404 15.6787 38.7842 15.7148 38.7364 15.7606C38.6878 15.8079 38.6492 15.8645 38.6231 15.927C38.5944 15.9918 38.5809 16.0634 38.5809 16.1432C38.5809 16.2248 38.596 16.298 38.6247 16.3612C38.6534 16.4262 38.6924 16.4812 38.7414 16.5276C38.7904 16.5744 38.8478 16.6092 38.9137 16.6326C38.9798 16.6558 39.0491 16.6692 39.1234 16.6692C39.2146 16.6692 39.2957 16.6508 39.3684 16.6158C39.4386 16.582 39.5018 16.5351 39.5544 16.4778L39.6811 16.6674ZM39.8179 15.3994H41.1886V15.6624H40.6375V16.8804H40.3706V15.6624H39.8197V15.3994H39.8179Z" fill="black" />
    <path fill-rule="evenodd" clip-rule="evenodd" d="M41.7476 15.3995H41.4805V17.5395H41.7476V16.8123C41.8016 16.8473 41.8659 16.8723 41.9402 16.8889C42.0145 16.9055 42.0922 16.9137 42.1717 16.9137C42.29 16.9137 42.3965 16.8921 42.4929 16.8523C42.5853 16.8129 42.6691 16.7559 42.7395 16.6843C42.8088 16.6125 42.8612 16.5293 42.8984 16.4311C42.9355 16.3331 42.9542 16.2281 42.9542 16.1167C42.9542 16.0067 42.9373 15.9053 42.9052 15.8137C42.8749 15.7267 42.8279 15.6465 42.7666 15.5775C42.7065 15.5103 42.632 15.4574 42.5485 15.4227C42.4573 15.3837 42.3588 15.3644 42.2595 15.3661C42.1549 15.3661 42.0569 15.3861 41.9639 15.4261C41.8709 15.4661 41.7982 15.5141 41.7476 15.5741V15.3995ZM41.9336 15.6741C42.0097 15.6341 42.0924 15.6141 42.182 15.6141C42.2597 15.6141 42.329 15.6257 42.3917 15.6507C42.4525 15.6757 42.5031 15.7107 42.5455 15.7573C42.5877 15.8039 42.6198 15.8573 42.6401 15.9203C42.662 15.9835 42.6722 16.0519 42.6722 16.1267C42.6722 16.2067 42.6586 16.2781 42.6351 16.3447C42.6129 16.4079 42.5778 16.4657 42.5318 16.5145C42.4857 16.5628 42.4299 16.6007 42.368 16.6259C42.299 16.6547 42.2247 16.6689 42.1499 16.6675C42.0774 16.6675 42.0097 16.6593 41.9454 16.6427C41.875 16.6237 41.8083 16.5933 41.7478 16.5527V15.8187C41.795 15.7623 41.8576 15.7141 41.9336 15.6741ZM45.0025 15.3993H44.7354V16.8805H45.0025V15.3993ZM43.3378 15.3993H43.6049V15.8437H43.8515C43.9682 15.8437 44.0628 15.8587 44.1389 15.8869C44.2151 15.9153 44.2759 15.9535 44.3215 16.0001C44.3671 16.0467 44.3992 16.1017 44.4177 16.1631C44.4364 16.2247 44.4464 16.2879 44.4464 16.3545C44.4464 16.4211 44.4364 16.4845 44.4145 16.5477C44.3942 16.6109 44.3587 16.6657 44.3113 16.7157C44.2641 16.7657 44.1998 16.8057 44.1187 16.8357C44.0375 16.8655 43.9395 16.8821 43.8212 16.8821H43.3362V15.3993H43.3378ZM43.6067 16.0915V16.6341H43.8011C43.9345 16.6341 44.0293 16.6109 44.0833 16.5641C44.1373 16.5175 44.1645 16.4511 44.1645 16.3629C44.1645 16.2729 44.1357 16.2049 44.0817 16.1581C44.0259 16.1115 43.9329 16.0881 43.8046 16.0881H43.6067V16.0915Z" fill="black" />
    <path d="M46.2823 16.1134L46.8534 16.8806H46.5257L46.0844 16.2814L45.6366 16.8806H45.3257L45.8934 16.1266L45.3594 15.3994H45.6874L46.0947 15.9586L46.5086 15.3994H46.8197L46.2823 16.1134ZM22.8211 18.7112H22.0015V19.946H21.7344V18.465H23.088V19.946H22.8211V18.7112ZM24.6039 18.7278H24.0767L24.0597 18.9774C24.0412 19.1888 24.0159 19.3586 23.9803 19.4882C23.9448 19.6182 23.9008 19.718 23.8502 19.7878C23.7996 19.8578 23.7403 19.906 23.6727 19.9294C23.6028 19.9546 23.529 19.967 23.4547 19.966L23.4345 19.7096C23.4632 19.7112 23.4969 19.7046 23.5341 19.688C23.5714 19.6714 23.6086 19.6348 23.6439 19.58C23.6795 19.5232 23.7116 19.4434 23.7403 19.3402C23.7691 19.2354 23.7877 19.099 23.7978 18.9274L23.8249 18.4664H24.871V19.9476H24.6039V18.7278Z" fill="black" />
    <path fill-rule="evenodd" clip-rule="evenodd" d="M25.5926 18.4684C25.5062 18.4916 25.4285 18.5248 25.3626 18.5664L25.4337 18.7762C25.4946 18.7462 25.5554 18.7212 25.6161 18.6996C25.6769 18.678 25.7549 18.668 25.8476 18.668C25.9221 18.668 25.9812 18.6796 26.0268 18.7028C26.0726 18.7246 26.1063 18.7578 26.13 18.7978C26.1535 18.8378 26.1688 18.8878 26.1772 18.9458C26.1856 19.0042 26.1891 19.0674 26.1891 19.1356C26.1344 19.0977 26.0721 19.0722 26.0065 19.0608C25.9431 19.0482 25.8786 19.0415 25.8139 19.0408C25.7346 19.0408 25.6601 19.0524 25.5892 19.0724C25.5181 19.0924 25.4572 19.1224 25.4082 19.1624C25.3582 19.2023 25.3178 19.2529 25.2899 19.3104C25.2602 19.3733 25.2452 19.4422 25.2461 19.5118C25.2461 19.6564 25.2883 19.7698 25.3729 19.8496C25.4572 19.9294 25.5689 19.9694 25.7075 19.9694C25.8326 19.9694 25.9322 19.9478 26.0083 19.9044C26.0842 19.8612 26.1451 19.8112 26.1891 19.7546V19.946H26.4393V19.0374C26.4393 18.8444 26.3969 18.6946 26.3108 18.5898C26.2262 18.4848 26.0758 18.4318 25.8629 18.4318C25.7716 18.4318 25.6807 18.4443 25.5926 18.4684ZM26.0404 19.668C25.9798 19.7114 25.9003 19.7314 25.8022 19.7314C25.7143 19.7314 25.6484 19.7098 25.6012 19.668C25.5538 19.6248 25.5301 19.5682 25.5301 19.4984C25.5301 19.4568 25.5385 19.4218 25.5572 19.3902C25.5757 19.3586 25.6012 19.3336 25.6299 19.3136C25.6586 19.2936 25.694 19.2786 25.733 19.2686C25.7716 19.2586 25.8113 19.2537 25.8513 19.2538C25.983 19.2538 26.0963 19.2854 26.1893 19.3518V19.5398C26.1454 19.5887 26.0954 19.6318 26.0404 19.668Z" fill="black" />
    <path d="M26.7012 18.465H28.0719V18.7278H27.5208V19.946H27.2539V18.728H26.703V18.465H26.7012Z" fill="black" />
    <path fill-rule="evenodd" clip-rule="evenodd" d="M29.3178 19.931C29.4193 19.8994 29.5054 19.851 29.5797 19.7846L29.4986 19.5782C29.4496 19.6216 29.3837 19.6582 29.3042 19.6882C29.2249 19.7182 29.1353 19.733 29.0373 19.733C28.8903 19.733 28.7686 19.6948 28.6722 19.6166C28.5757 19.5384 28.5235 19.4286 28.5117 19.2886H29.6677C29.6793 19.2372 29.6846 19.1788 29.6846 19.1106C29.6846 19.0092 29.6659 18.9176 29.6287 18.8344C29.5941 18.7536 29.5435 18.6806 29.4799 18.6198C29.4157 18.5593 29.3399 18.5123 29.257 18.4816C29.1702 18.4481 29.0779 18.4311 28.9849 18.4316C28.8597 18.4316 28.7499 18.4532 28.6537 18.4932C28.5627 18.5312 28.4804 18.5872 28.4119 18.658C28.3453 18.7283 28.2941 18.8116 28.2614 18.9026C28.2258 18.9995 28.2081 19.1021 28.209 19.2054C28.209 19.322 28.2293 19.4284 28.2665 19.5234C28.3038 19.6182 28.3594 19.6998 28.4287 19.768C28.498 19.8362 28.5826 19.8878 28.6824 19.9244C28.7892 19.9622 28.9019 19.9808 29.0152 19.9794C29.115 19.9794 29.2164 19.9626 29.3178 19.931ZM28.6402 18.7894C28.723 18.7146 28.8328 18.678 28.9714 18.678C29.1033 18.678 29.2064 18.7146 29.2825 18.7828C29.3584 18.8528 29.399 18.9492 29.4058 19.0724H28.4932C28.5061 18.9634 28.5583 18.8628 28.6402 18.7894ZM29.8147 18.465H30.1527L30.6681 19.179L30.1172 19.946H29.7894L30.3672 19.1788L29.8147 18.465ZM30.7339 18.465H31.0011V19.946H30.7339V18.465ZM31.9558 19.946L31.3678 19.1788L31.9171 18.4648H31.5857L31.0669 19.1788L31.6247 19.946H31.9558ZM33.1761 19.931C33.2775 19.8994 33.3637 19.851 33.438 19.7846L33.3569 19.5782C33.3079 19.6216 33.242 19.6582 33.1627 19.6882C33.0831 19.7182 32.9936 19.733 32.8955 19.733C32.7485 19.733 32.6268 19.6948 32.5304 19.6166C32.4342 19.5384 32.3818 19.4286 32.37 19.2886H33.526C33.5378 19.2372 33.5428 19.1788 33.5428 19.1106C33.5428 19.0092 33.5244 18.9176 33.487 18.8344C33.4524 18.7536 33.4019 18.6807 33.3384 18.6198C33.2741 18.5593 33.1982 18.5123 33.1153 18.4816C33.0285 18.448 32.9362 18.4311 32.8431 18.4316C32.7182 18.4316 32.6084 18.4532 32.512 18.4932C32.421 18.5312 32.3388 18.5873 32.2703 18.658C32.2036 18.7282 32.1524 18.8115 32.1199 18.9026C32.0842 18.9995 32.0665 19.1021 32.0675 19.2054C32.0675 19.322 32.0878 19.4284 32.1249 19.5234C32.1621 19.6182 32.2179 19.6998 32.2872 19.768C32.3565 19.8362 32.4409 19.8878 32.5407 19.9244C32.6475 19.9622 32.7603 19.9808 32.8737 19.9794C32.9764 19.9786 33.0783 19.9623 33.1761 19.931ZM32.4985 18.7894C32.5814 18.7146 32.6913 18.678 32.8299 18.678C32.96 18.678 33.0647 18.7146 33.1408 18.7828C33.2169 18.8528 33.2575 18.9492 33.2641 19.0724H32.3515C32.3644 18.9634 32.4166 18.8628 32.4985 18.7894ZM34.6264 17.9674C34.4691 17.9674 34.3829 17.8808 34.3695 17.7078H34.1176C34.1176 17.7742 34.1295 17.8342 34.1514 17.8908C34.1735 17.9474 34.2056 17.9956 34.2478 18.0356C34.29 18.0756 34.3442 18.1072 34.4066 18.132C34.4691 18.157 34.5418 18.1686 34.6246 18.1686C34.7007 18.1686 34.7684 18.157 34.8292 18.132C34.8901 18.1088 34.9407 18.0756 34.9847 18.0356C35.0268 17.9956 35.0608 17.9474 35.0843 17.8908C35.108 17.8342 35.1198 17.7742 35.1198 17.7078H34.8698C34.8579 17.8808 34.775 17.9674 34.6264 17.9674ZM33.9046 18.4648V19.946H34.1717L35.0403 18.8426V19.946H35.3074V18.4648H35.0403L34.1717 19.5682V18.4648H33.9046Z" fill="black" />
  </g>
  <defs>
    <clipPath id="clip0_874_6702">
      <rect width="48" height="24" fill="white" />
    </clipPath>
  </defs>
</svg>