<svg width="24" height="24" viewBox="0 0 24 24" fill="none" xmlns="http://www.w3.org/2000/svg">
  <path d="M23.6383 14.9029C22.0356 21.3315 15.5244 25.2438 9.09503 23.6407C2.66833 22.0381 -1.24401 15.5265 0.359382 9.09837C1.96137 2.66903 8.47253 -1.24361 14.8999 0.359081C21.3289 1.96177 25.241 8.47405 23.6381 14.903L23.6382 14.9029H23.6383Z" fill="#50AF95" />
  <path fill-rule="evenodd" clip-rule="evenodd" d="M13.5189 13.3604C13.4341 13.3668 12.9957 13.3929 12.0178 13.3929C11.24 13.3929 10.6877 13.3696 10.494 13.3604C7.48813 13.2282 5.24454 12.7049 5.24454 12.0785C5.24454 11.452 7.48813 10.9294 10.494 10.7951V12.8393C10.6905 12.8534 11.2534 12.8867 12.0312 12.8867C12.9646 12.8867 13.4319 12.8478 13.5161 12.84V10.7965C16.5156 10.9301 18.7542 11.4534 18.7542 12.0785C18.7542 12.7035 16.5163 13.2268 13.5161 13.3597L13.5189 13.3604ZM13.5189 10.5851V8.75584H17.7049V5.96637H6.308V8.75584H10.4933V10.5844C7.09146 10.7406 4.5332 11.4145 4.5332 12.222C4.5332 13.0295 7.09146 13.7026 10.4933 13.8596V19.7214H13.5182V13.8575C16.9122 13.7012 19.4662 13.0281 19.4662 12.2213C19.4662 11.4145 16.9144 10.7414 13.5182 10.5844L13.5189 10.5851Z" fill="white" />
</svg>