<?xml version="1.0"?>
<svg xmlns="http://www.w3.org/2000/svg" xmlns:xlink="http://www.w3.org/1999/xlink" version="1.1" xml:space="preserve">
  <defs>

    <symbol id="loader" width="100%" height="100%" viewBox="22 22 44 44">
      <circle cx="44" cy="44" r="20.2" fill="transparent" stroke="currentColor" stroke-width="4" />
    </symbol>

    <symbol id="arrow-top" width="100%" height="100%" viewBox="0 0 11 11">
      <path d="M10.5 0C10.5327 -1.0381e-08 10.5655 0.00242399 10.5977 0.00878906C10.6488 0.0188902 10.696 0.0390931 10.7402 0.0634766C10.7806 0.0856918 10.8193 0.1123 10.8535 0.146484C10.8874 0.18034 10.9134 0.218907 10.9355 0.258789C10.9601 0.302993 10.98 0.350239 10.9902 0.401367C10.9967 0.433894 11 0.466951 11 0.5V10.5C11 10.7761 10.7761 11 10.5 11C10.2239 11 10 10.7761 10 10.5V1.70703L0.853516 10.8535C0.658256 11.0488 0.341744 11.0488 0.146484 10.8535C-0.0487737 10.6583 -0.0487662 10.3417 0.146484 10.1465L9.29297 1H0.5C0.223859 1 2.06162e-06 0.776141 0 0.5C0 0.223858 0.223858 0 0.5 0H10.5Z" fill="currentColor" />
    </symbol>

    <symbol id="arrow-back" width="100%" height="100%" viewBox="0 0 20 20">
      <path fill-rule="evenodd" clip-rule="evenodd" d="M8.77593 4.55806C9.02 4.80214 9.02 5.19786 8.77593 5.44194L4.84287 9.375H16.6673C17.0125 9.375 17.2923 9.65482 17.2923 10C17.2923 10.3452 17.0125 10.625 16.6673 10.625H4.84287L8.77593 14.5581C9.02 14.8021 9.02 15.1979 8.77593 15.4419C8.53185 15.686 8.13612 15.686 7.89204 15.4419L2.89204 10.4419C2.64796 10.1979 2.64796 9.80214 2.89204 9.55806L7.89204 4.55806C8.13612 4.31398 8.53185 4.31398 8.77593 4.55806Z" fill="currentColor" />
    </symbol>

    <symbol id="arrow-left" width="100%" height="100%" viewBox="0 0 24 24">
      <path d="M15 5L9 12L15 19" fill="transparent" stroke="currentColor" stroke-width="1.5" stroke-linecap="round" stroke-linejoin="round" />
    </symbol>

    <symbol id="arrow-right" width="100%" height="100%" viewBox="0 0 24 24">
      <path d="M9 5L15 12L9 19" fill="transparent" stroke="currentColor" stroke-width="1.5" stroke-linecap="round" stroke-linejoin="round" />
    </symbol>

    <symbol id="arrows" width="100%" height="100%" viewBox="0 0 24 24">
      <path fill-rule="evenodd" clip-rule="evenodd" d="M10.0068 3.44714C10.3121 3.72703 10.3328 4.20146 10.0529 4.5068L5.70494 9.25H20C20.4142 9.25 20.75 9.58579 20.75 10C20.75 10.4142 20.4142 10.75 20 10.75H4.00002C3.70259 10.75 3.43327 10.5742 3.3135 10.302C3.19374 10.0298 3.24617 9.71246 3.44715 9.49321L8.94715 3.49321C9.22704 3.18787 9.70147 3.16724 10.0068 3.44714Z" fill="currentColor" />
      <path fill-rule="evenodd" clip-rule="evenodd" d="M20.6865 13.698C20.5668 13.4258 20.2974 13.25 20 13.25L4.00001 13.25C3.5858 13.25 3.25001 13.5858 3.25001 14C3.25001 14.4142 3.5858 14.75 4.00001 14.75L18.2951 14.75L13.9472 19.4932C13.6673 19.7985 13.6879 20.273 13.9932 20.5529C14.2986 20.8328 14.773 20.8121 15.0529 20.5068L20.5529 14.5068C20.7539 14.2876 20.8063 13.9703 20.6865 13.698Z" fill="currentColor" />
    </symbol>

    <symbol id="sun" width="100%" height="100%" viewBox="0 0 25 24">
      <path d="M19.0141 12C19.0141 15.699 16.0154 18.6977 12.3164 18.6977C8.61738 18.6977 5.61873 15.699 5.61873 12C5.61873 8.30098 8.61738 5.30233 12.3164 5.30233C16.0154 5.30233 19.0141 8.30098 19.0141 12Z" fill="currentColor" />
      <path fill-rule="evenodd" clip-rule="evenodd" d="M12.3164 0C12.7788 0 13.1536 0.374831 13.1536 0.837209V1.95349C13.1536 2.41587 12.7788 2.7907 12.3164 2.7907C11.854 2.7907 11.4792 2.41587 11.4792 1.95349V0.837209C11.4792 0.374831 11.854 0 12.3164 0ZM3.83113 3.51473C4.15808 3.18778 4.68818 3.18778 5.01513 3.51473L5.45364 3.95324C5.78059 4.28019 5.78059 4.81029 5.45364 5.13724C5.12669 5.46419 4.5966 5.46419 4.26965 5.13724L3.83113 4.69872C3.50418 4.37177 3.50418 3.84168 3.83113 3.51473ZM20.8014 3.51502C21.1283 3.84197 21.1283 4.37206 20.8014 4.69901L20.3629 5.13753C20.0359 5.46448 19.5058 5.46448 19.1789 5.13753C18.8519 4.81057 18.8519 4.28048 19.1789 3.95353L19.6174 3.51502C19.9443 3.18807 20.4744 3.18807 20.8014 3.51502ZM0.316406 12C0.316406 11.5376 0.691238 11.1628 1.15362 11.1628H2.26989C2.73227 11.1628 3.1071 11.5376 3.1071 12C3.1071 12.4624 2.73227 12.8372 2.26989 12.8372H1.15362C0.691238 12.8372 0.316406 12.4624 0.316406 12ZM21.5257 12C21.5257 11.5376 21.9005 11.1628 22.3629 11.1628H23.4792C23.9416 11.1628 24.3164 11.5376 24.3164 12C24.3164 12.4624 23.9416 12.8372 23.4792 12.8372H22.3629C21.9005 12.8372 21.5257 12.4624 21.5257 12ZM19.1789 18.8625C19.5058 18.5355 20.0359 18.5355 20.3629 18.8625L20.8014 19.301C21.1283 19.6279 21.1283 20.158 20.8014 20.485C20.4744 20.8119 19.9443 20.8119 19.6174 20.485L19.1789 20.0465C18.8519 19.7195 18.8519 19.1894 19.1789 18.8625ZM5.45364 18.8628C5.78059 19.1897 5.78059 19.7198 5.45364 20.0468L5.01513 20.4853C4.68818 20.8122 4.15809 20.8122 3.83113 20.4853C3.50418 20.1583 3.50418 19.6282 3.83113 19.3013L4.26965 18.8628C4.5966 18.5358 5.12669 18.5358 5.45364 18.8628ZM12.3164 21.2093C12.7788 21.2093 13.1536 21.5841 13.1536 22.0465V23.1628C13.1536 23.6252 12.7788 24 12.3164 24C11.854 24 11.4792 23.6252 11.4792 23.1628V22.0465C11.4792 21.5841 11.854 21.2093 12.3164 21.2093Z" fill="currentColor" />
    </symbol>

    <symbol id="moon" width="100%" height="100%" viewBox="0 0 24 24">
      <path d="M12.3164 21C17.287 21 21.3164 16.9706 21.3164 12C21.3164 11.5836 20.6923 11.5148 20.4769 11.8712C19.4525 13.5666 17.5918 14.7 15.4664 14.7C12.2355 14.7 9.61641 12.0809 9.61641 8.85C9.61641 6.72461 10.7498 4.86395 12.4452 3.83948C12.8017 3.62412 12.7328 3 12.3164 3C7.34584 3 3.31641 7.02944 3.31641 12C3.31641 16.9706 7.34584 21 12.3164 21Z" fill="currentColor" />
    </symbol>

    <symbol id="user" width="100%" height="100%" viewBox="0 0 24 24">
      <circle cx="12" cy="6" r="4" fill="currentColor" />
      <ellipse cx="12" cy="17" rx="7" ry="4" fill="currentColor" />
    </symbol>

    <symbol id="burger" width="100%" height="100%" viewBox="0 0 30 30">
      <path fill-rule="evenodd" clip-rule="evenodd" d="M25.9375 8.75C25.9375 9.26777 25.5178 9.6875 25 9.6875L5 9.6875C4.48223 9.6875 4.0625 9.26777 4.0625 8.75C4.0625 8.23223 4.48223 7.8125 5 7.8125L25 7.8125C25.5178 7.8125 25.9375 8.23223 25.9375 8.75Z" fill="currentColor" />
      <path fill-rule="evenodd" clip-rule="evenodd" d="M25.9375 15C25.9375 15.5178 25.5178 15.9375 25 15.9375L5 15.9375C4.48223 15.9375 4.0625 15.5178 4.0625 15C4.0625 14.4822 4.48223 14.0625 5 14.0625L25 14.0625C25.5178 14.0625 25.9375 14.4822 25.9375 15Z" fill="currentColor" />
      <path fill-rule="evenodd" clip-rule="evenodd" d="M25.9375 21.25C25.9375 21.7678 25.5178 22.1875 25 22.1875L5 22.1875C4.48223 22.1875 4.0625 21.7678 4.0625 21.25C4.0625 20.7322 4.48223 20.3125 5 20.3125L25 20.3125C25.5178 20.3125 25.9375 20.7322 25.9375 21.25Z" fill="currentColor" />
    </symbol>

    <symbol id="close" width="100%" height="100%" viewBox="0 0 30 30">
      <path d="M21.9999 8.00004L8 22M7.99994 7.99998L21.9999 21.9999" fill="transparent" stroke="currentColor" stroke-width="2" stroke-linecap="round" />
    </symbol>

    <symbol id="email" width="100%" height="100%" viewBox="0 0 18 18">
      <path d="M16.5 4.5C16.5 5.74264 15.4926 6.75 14.25 6.75C13.0074 6.75 12 5.74264 12 4.5C12 3.25736 13.0074 2.25 14.25 2.25C15.4926 2.25 16.5 3.25736 16.5 4.5Z" fill="currentColor" />
      <path fill-rule="evenodd" clip-rule="evenodd" d="M10.5 3.75H7.5C4.67157 3.75 3.25736 3.75 2.37868 4.62868C1.5 5.50736 1.5 6.92157 1.5 9.75C1.5 12.5784 1.5 13.9926 2.37868 14.8713C3.25736 15.75 4.67157 15.75 7.5 15.75H10.5C13.3284 15.75 14.7426 15.75 15.6213 14.8713C16.5 13.9926 16.5 12.5784 16.5 9.75C16.5 8.65998 16.5 7.77999 16.4497 7.05975C15.859 7.56787 15.0903 7.875 14.25 7.875C13.891 7.875 13.5451 7.81894 13.2205 7.71511L12.2127 8.55492C11.548 9.10892 11.0092 9.55794 10.5336 9.86379C10.0382 10.1824 9.55581 10.3837 9 10.3837C8.44419 10.3837 7.96176 10.1824 7.46638 9.86379C6.99084 9.55794 6.45203 9.10892 5.78727 8.55493L4.1399 7.18212C3.90124 6.98324 3.869 6.62855 4.06788 6.3899C4.26676 6.15124 4.62145 6.119 4.8601 6.31788L6.47928 7.66719C7.179 8.25028 7.6648 8.65381 8.07494 8.9176C8.47196 9.17294 8.7412 9.25866 9 9.25866C9.2588 9.25866 9.52804 9.17294 9.92506 8.9176C10.3352 8.65381 10.821 8.25028 11.5207 7.66718L12.1503 7.14252C11.3732 6.5242 10.875 5.57028 10.875 4.5C10.875 4.24228 10.9039 3.99131 10.9586 3.75015C10.81 3.75 10.6572 3.75 10.5 3.75Z" fill="currentColor" />
    </symbol>

    <symbol id="telegram" width="100%" height="100%" viewBox="0 0 16 14">
      <path d="M15.9866 1.20879C16.1112 0.403318 15.3454 -0.232446 14.6292 0.0819956L0.364818 6.34484C-0.148772 6.57034 -0.111204 7.34826 0.421467 7.51789L3.36315 8.45467C3.92458 8.63347 4.53253 8.54102 5.02279 8.20231L11.655 3.62027C11.855 3.4821 12.073 3.76646 11.9021 3.94263L7.12811 8.86465C6.66501 9.34211 6.75693 10.1512 7.31397 10.5005L12.659 13.8523C13.2585 14.2282 14.0297 13.8506 14.1418 13.1261L15.9866 1.20879Z" fill="currentColor" />
    </symbol>

    <symbol id="star" width="100%" height="100%" viewBox="0 0 32 32">
      <path d="M32 15.9886C25.7233 16.5588 22.117 17.0834 19.903 18.8168C17.301 20.8468 16.6847 24.5645 16 32C15.2924 24.2908 14.6534 20.5959 11.8003 18.6115C9.58631 17.0606 6.00285 16.5588 0 16.0114C6.25392 15.4412 9.88302 14.9166 12.0742 13.206C14.699 11.1532 15.3153 7.4583 16 0C16.6391 6.86529 17.2097 10.5374 19.3324 12.6586C21.4551 14.7798 25.1526 15.3728 32 15.9886Z" fill="currentColor" />
    </symbol>

    <symbol id="transfer" width="100%" height="100%" viewBox="0 0 20 20">
      <path fill-rule="evenodd" clip-rule="evenodd" d="M18.3334 10.0001C18.3334 14.6025 14.6025 18.3334 10.0001 18.3334C5.39771 18.3334 1.66675 14.6025 1.66675 10.0001C1.66675 5.39771 5.39771 1.66675 10.0001 1.66675C14.6025 1.66675 18.3334 5.39771 18.3334 10.0001ZM5.83341 12.2917L12.5001 12.2917L10.8912 13.6959C10.6311 13.9228 10.6043 14.3176 10.8313 14.5777C11.0582 14.8378 11.4531 14.8646 11.7131 14.6376L14.5777 12.1376C14.774 11.9663 14.8434 11.6912 14.752 11.4473C14.6605 11.2034 14.4273 11.0417 14.1667 11.0417L5.83341 11.0417C5.48824 11.0417 5.20841 11.3216 5.20841 11.6667C5.20841 12.0119 5.48824 12.2917 5.83341 12.2917ZM9.16889 5.42246C9.39585 5.68252 9.36902 6.07734 9.10896 6.30431L7.50008 7.70841H14.1667C14.5119 7.70841 14.7917 7.98824 14.7917 8.33341C14.7917 8.67859 14.5119 8.95841 14.1667 8.95841H5.83341C5.57289 8.95841 5.33969 8.79681 5.24821 8.55287C5.15673 8.30893 5.22617 8.03383 5.42246 7.86252L8.28704 5.36252C8.5471 5.13556 8.94192 5.16239 9.16889 5.42246Z" fill="currentColor" />
    </symbol>

    <symbol id="cash" width="100%" height="100%" viewBox="0 0 20 20">
      <path d="M9.37509 5H7.50008C5.92873 5 5.14306 5 4.6549 5.48816C4.16675 5.97631 4.16675 6.76198 4.16675 8.33333L4.16679 13.5417H15.8334L15.8334 8.33333C15.8334 6.76198 15.8334 5.97631 15.3453 5.48816C14.8571 5 14.0714 5 12.5001 5H10.6251V9.1438L11.1922 8.48214C11.4169 8.22007 11.8114 8.18971 12.0735 8.41435C12.3356 8.63899 12.3659 9.03356 12.1413 9.29563L10.4746 11.2401C10.3559 11.3786 10.1825 11.4583 10.0001 11.4583C9.81764 11.4583 9.6443 11.3786 9.52556 11.2401L7.85889 9.29563C7.63425 9.03356 7.6646 8.63899 7.92668 8.41435C8.18876 8.18971 8.58332 8.22007 8.80796 8.48214L9.37509 9.1438V5Z" fill="currentColor" />
      <path d="M4.19225 14.7917H15.8079C15.7652 15.4505 15.6509 15.8728 15.3453 16.1785C14.8571 16.6667 14.0714 16.6667 12.5001 16.6667H7.50008C5.92873 16.6667 5.14306 16.6667 4.6549 16.1785C4.34923 15.8728 4.23496 15.4505 4.19225 14.7917Z" fill="currentColor" />
      <path d="M4.90749 2.5H15.0927C16.8825 2.5 18.3334 3.99998 18.3334 5.8503C18.3334 6.92476 17.8442 7.88109 17.0834 8.49417L17.0834 8.25877C17.0835 7.53742 17.0836 6.87602 17.0112 6.338C16.9316 5.74553 16.7442 5.11932 16.2291 4.60428C15.7141 4.08924 15.0879 3.90183 14.4954 3.82218C13.9574 3.74984 13.296 3.74992 12.5746 3.75001H7.42548C6.70412 3.74992 6.04273 3.74984 5.50471 3.82218C4.91225 3.90183 4.28604 4.08924 3.771 4.60428C3.25596 5.11932 3.06855 5.74553 2.98889 6.338C2.91656 6.87602 2.91664 7.5374 2.91672 8.25876L2.91673 8.49414C2.15599 7.88106 1.66675 6.92474 1.66675 5.8503C1.66675 3.99998 3.11768 2.5 4.90749 2.5Z" fill="currentColor" />
    </symbol>

    <symbol id="percent" width="100%" height="100%" viewBox="0 0 20 20">
      <path fill-rule="evenodd" clip-rule="evenodd" d="M2.88714 2.88714C1.66675 4.10752 1.66675 6.07171 1.66675 10.0001C1.66675 13.9285 1.66675 15.8926 2.88714 17.113C4.10752 18.3334 6.07171 18.3334 10.0001 18.3334C13.9285 18.3334 15.8926 18.3334 17.113 17.113C18.3334 15.8926 18.3334 13.9285 18.3334 10.0001C18.3334 6.07171 18.3334 4.10752 17.113 2.88714C15.8926 1.66675 13.9285 1.66675 10.0001 1.66675C6.07171 1.66675 4.10752 1.66675 2.88714 2.88714ZM12.942 7.05814C13.1861 7.30222 13.1861 7.69795 12.942 7.94202L7.94202 12.942C7.69795 13.1861 7.30222 13.1861 7.05814 12.942C6.81406 12.6979 6.81406 12.3022 7.05814 12.0581L12.0581 7.05814C12.3022 6.81406 12.6979 6.81406 12.942 7.05814ZM8.75008 7.91675C8.75008 8.37699 8.37699 8.75008 7.91675 8.75008C7.45651 8.75008 7.08341 8.37699 7.08341 7.91675C7.08341 7.45651 7.45651 7.08341 7.91675 7.08341C8.37699 7.08341 8.75008 7.45651 8.75008 7.91675ZM12.0834 12.9167C12.5437 12.9167 12.9167 12.5437 12.9167 12.0834C12.9167 11.6232 12.5437 11.2501 12.0834 11.2501C11.6232 11.2501 11.2501 11.6232 11.2501 12.0834C11.2501 12.5437 11.6232 12.9167 12.0834 12.9167Z" fill="currentColor" />
    </symbol>

    <symbol id="wallet" width="100%" height="100%" viewBox="0 0 20 20">
      <path fill-rule="evenodd" clip-rule="evenodd" d="M16.9174 7.16961C16.8702 7.16663 16.8188 7.16665 16.7655 7.16667L16.7522 7.16667H14.6618C12.9387 7.16667 11.4644 8.52297 11.4644 10.2917C11.4644 12.0604 12.9387 13.4167 14.6618 13.4167H16.7522L16.7655 13.4167C16.8188 13.4167 16.8702 13.4167 16.9174 13.4137C17.6173 13.3695 18.2363 12.8218 18.2883 12.0568C18.2917 12.0067 18.2917 11.9526 18.2917 11.9025L18.2917 11.8889V8.69445L18.2917 8.68085C18.2917 8.63073 18.2917 8.57666 18.2883 8.5265C18.2363 7.7615 17.6173 7.21381 16.9174 7.16961ZM14.4764 11.125C14.92 11.125 15.2796 10.7519 15.2796 10.2917C15.2796 9.83143 14.92 9.45833 14.4764 9.45833C14.0328 9.45833 13.6732 9.83143 13.6732 10.2917C13.6732 10.7519 14.0328 11.125 14.4764 11.125Z" fill="currentColor" />
      <path fill-rule="evenodd" clip-rule="evenodd" d="M16.7649 14.6667C16.8892 14.6635 16.9832 14.7785 16.9495 14.8982C16.7822 15.4919 16.5167 15.9979 16.0906 16.424C15.467 17.0476 14.6762 17.3244 13.6992 17.4557C12.7498 17.5834 11.5368 17.5833 10.0053 17.5833H8.24466C6.71319 17.5833 5.50016 17.5834 4.55081 17.4557C3.5738 17.3244 2.78301 17.0476 2.15937 16.424C1.53573 15.8003 1.25897 15.0095 1.12761 14.0325C0.999977 13.0832 0.999987 11.8701 1 10.3387V10.2447C0.999987 8.71319 0.999976 7.50016 1.12761 6.55082C1.25897 5.5738 1.53573 4.78301 2.15937 4.15937C2.78301 3.53573 3.5738 3.25897 4.55081 3.12761C5.50016 2.99998 6.71319 2.99999 8.24465 3L10.0053 3C11.5368 2.99999 12.7498 2.99998 13.6992 3.12761C14.6762 3.25897 15.467 3.53573 16.0906 4.15937C16.5167 4.58544 16.7822 5.09145 16.9495 5.68515C16.9832 5.8048 16.8892 5.91989 16.7649 5.91667L14.6617 5.91667C12.2978 5.91667 10.2143 7.78409 10.2143 10.2917C10.2143 12.7993 12.2978 14.6667 14.6617 14.6667L16.7649 14.6667ZM4.125 6.33333C3.77982 6.33333 3.5 6.61316 3.5 6.95833C3.5 7.30351 3.77982 7.58333 4.125 7.58333H7.45833C7.80351 7.58333 8.08333 7.30351 8.08333 6.95833C8.08333 6.61316 7.80351 6.33333 7.45833 6.33333H4.125Z" fill="currentColor" />
    </symbol>

    <symbol id="dialog" width="100%" height="100%" viewBox="0 0 20 20">
      <path d="M18.3334 7.08341C18.3334 4.09187 15.9083 1.66675 12.9167 1.66675C11.181 1.66675 9.63598 2.48533 8.64467 3.75609C12.8727 3.91955 16.2501 7.39873 16.2501 11.6667C16.2501 11.7587 16.2485 11.8502 16.2454 11.9414L16.5223 12.0155C17.3276 12.231 18.0643 11.4942 17.8488 10.689L17.7427 10.2923C17.6569 9.9718 17.7085 9.63326 17.8463 9.33152C18.1591 8.64674 18.3334 7.88543 18.3334 7.08341Z" fill="currentColor" />
      <path fill-rule="evenodd" clip-rule="evenodd" d="M15.0001 11.6667C15.0001 15.3486 12.0153 18.3334 8.33341 18.3334C7.30383 18.3334 6.32875 18.1 5.45821 17.6832C5.159 17.54 4.82003 17.4897 4.49957 17.5755L3.47787 17.8488C2.67259 18.0643 1.93588 17.3276 2.15134 16.5223L2.42471 15.5006C2.51045 15.1801 2.46016 14.8412 2.31691 14.542C1.90014 13.6714 1.66675 12.6963 1.66675 11.6667C1.66675 7.98485 4.65152 5.00008 8.33341 5.00008C12.0153 5.00008 15.0001 7.98485 15.0001 11.6667ZM5.41675 12.5001C5.87699 12.5001 6.25008 12.127 6.25008 11.6667C6.25008 11.2065 5.87699 10.8334 5.41675 10.8334C4.95651 10.8334 4.58341 11.2065 4.58341 11.6667C4.58341 12.127 4.95651 12.5001 5.41675 12.5001ZM8.33341 12.5001C8.79365 12.5001 9.16675 12.127 9.16675 11.6667C9.16675 11.2065 8.79365 10.8334 8.33341 10.8334C7.87318 10.8334 7.50008 11.2065 7.50008 11.6667C7.50008 12.127 7.87318 12.5001 8.33341 12.5001ZM11.2501 12.5001C11.7103 12.5001 12.0834 12.127 12.0834 11.6667C12.0834 11.2065 11.7103 10.8334 11.2501 10.8334C10.7898 10.8334 10.4167 11.2065 10.4167 11.6667C10.4167 12.127 10.7898 12.5001 11.2501 12.5001Z" fill="currentColor" />
    </symbol>

    <symbol id="users" width="100%" height="100%" viewBox="0 0 20 20">
      <path d="M12.9166 6.24992C12.9166 7.86075 11.6107 9.16659 9.99992 9.16659C8.38909 9.16659 7.08325 7.86075 7.08325 6.24992C7.08325 4.63909 8.38909 3.33325 9.99992 3.33325C11.6107 3.33325 12.9166 4.63909 12.9166 6.24992Z" fill="currentColor" />
      <path d="M15 13.7499C15 15.3607 12.7614 16.6666 10 16.6666C7.23858 16.6666 5 15.3607 5 13.7499C5 12.1391 7.23858 10.8333 10 10.8333C12.7614 10.8333 15 12.1391 15 13.7499Z" fill="currentColor" />
      <path d="M5.93512 4.16675C6.08301 4.16675 6.22738 4.18126 6.36679 4.20888C6.02716 4.81213 5.83341 5.50848 5.83341 6.25008C5.83341 6.97363 6.01784 7.6541 6.34224 8.24705C6.21045 8.27161 6.07435 8.28447 5.93512 8.28447C4.75644 8.28447 3.80093 7.36268 3.80093 6.22561C3.80093 5.08853 4.75644 4.16675 5.93512 4.16675Z" fill="currentColor" />
      <path d="M4.53953 15.8217C4.06627 15.256 3.75008 14.5618 3.75008 13.7501C3.75008 12.9632 4.04723 12.2867 4.49656 11.7307C2.90933 11.8538 1.66675 12.7219 1.66675 13.7746C1.66675 14.8371 2.93117 15.7116 4.53953 15.8217Z" fill="currentColor" />
      <path d="M14.1667 6.25008C14.1667 6.97363 13.9823 7.6541 13.6578 8.24705C13.7896 8.27161 13.9257 8.28447 14.065 8.28447C15.2437 8.28447 16.1992 7.36268 16.1992 6.22561C16.1992 5.08853 15.2437 4.16675 14.065 4.16675C13.9171 4.16675 13.7727 4.18126 13.6333 4.20888C13.9729 4.81213 14.1667 5.50848 14.1667 6.25008Z" fill="currentColor" />
      <path d="M15.4606 15.8217C17.0689 15.7116 18.3333 14.8371 18.3333 13.7746C18.3333 12.7219 17.0908 11.8538 15.5035 11.7307C15.9529 12.2867 16.25 12.9632 16.25 13.7501C16.25 14.5618 15.9338 15.256 15.4606 15.8217Z" fill="currentColor" />
    </symbol>

    <symbol id="check" width="100%" height="100%" viewBox="0 0 20 20">
      <path fill-rule="evenodd" clip-rule="evenodd" d="M7.99375 2.66697C7.79081 2.83992 7.68934 2.9264 7.58097 2.99903C7.33255 3.16553 7.05356 3.28109 6.76016 3.33902C6.63217 3.36429 6.49928 3.37489 6.23348 3.3961C5.56566 3.44939 5.23175 3.47604 4.95317 3.57444C4.30884 3.80202 3.80202 4.30884 3.57444 4.95317C3.47604 5.23175 3.44939 5.56566 3.3961 6.23348C3.37489 6.49928 3.36429 6.63217 3.33902 6.76016C3.28109 7.05356 3.16553 7.33255 2.99903 7.58097C2.92639 7.68934 2.83992 7.79081 2.66697 7.99375C2.23244 8.50365 2.01517 8.75861 1.88776 9.02517C1.59308 9.64171 1.59308 10.3585 1.88776 10.975C2.01517 11.2416 2.23244 11.4965 2.66697 12.0064C2.8399 12.2093 2.9264 12.3108 2.99903 12.4192C3.16553 12.6676 3.28109 12.9466 3.33902 13.24C3.36429 13.368 3.37489 13.5009 3.3961 13.7667C3.44939 14.4345 3.47604 14.7684 3.57444 15.047C3.80202 15.6913 4.30884 16.1981 4.95317 16.4257C5.23175 16.5241 5.56566 16.5508 6.23348 16.6041C6.49928 16.6253 6.63217 16.6359 6.76016 16.6611C7.05356 16.7191 7.33255 16.8346 7.58096 17.0011C7.68934 17.0738 7.79081 17.1602 7.99375 17.3332C8.50365 17.7677 8.75861 17.985 9.02517 18.1124C9.64171 18.4071 10.3585 18.4071 10.975 18.1124C11.2416 17.985 11.4965 17.7677 12.0064 17.3332C12.2094 17.1602 12.3108 17.0738 12.4192 17.0011C12.6676 16.8346 12.9466 16.7191 13.24 16.6611C13.368 16.6359 13.5009 16.6253 13.7667 16.6041C14.4345 16.5508 14.7684 16.5241 15.047 16.4257C15.6913 16.1981 16.1981 15.6913 16.4257 15.047C16.5241 14.7684 16.5508 14.4345 16.6041 13.7667C16.6253 13.5009 16.6359 13.368 16.6611 13.24C16.7191 12.9466 16.8346 12.6676 17.0011 12.4192C17.0738 12.3108 17.1602 12.2094 17.3332 12.0064C17.7677 11.4965 17.985 11.2416 18.1124 10.975C18.4071 10.3585 18.4071 9.64171 18.1124 9.02517C17.985 8.75861 17.7677 8.50365 17.3332 7.99375C17.1602 7.79081 17.0738 7.68934 17.0011 7.58096C16.8346 7.33255 16.7191 7.05356 16.6611 6.76016C16.6359 6.63217 16.6253 6.49928 16.6041 6.23348C16.5508 5.56566 16.5241 5.23175 16.4257 4.95317C16.1981 4.30884 15.6913 3.80202 15.047 3.57444C14.7684 3.47604 14.4345 3.44939 13.7667 3.3961C13.5009 3.37489 13.368 3.36429 13.24 3.33902C12.9466 3.28109 12.6676 3.16553 12.4192 2.99903C12.3108 2.92639 12.2094 2.83992 12.0064 2.66697C11.4965 2.23244 11.2416 2.01517 10.975 1.88776C10.3585 1.59308 9.64171 1.59308 9.02517 1.88776C8.75861 2.01517 8.50365 2.23244 7.99375 2.66697ZM13.6447 8.21936C13.9095 7.9545 13.9095 7.52508 13.6447 7.26022C13.3798 6.99536 12.9504 6.99536 12.6855 7.26022L8.64364 11.3021L7.31463 9.97308C7.04977 9.70822 6.62035 9.70822 6.35549 9.97308C6.09063 10.2379 6.09063 10.6674 6.35549 10.9322L8.16406 12.7408C8.42892 13.0057 8.85835 13.0057 9.12321 12.7408L13.6447 8.21936Z" fill="currentColor" />
    </symbol>

    <symbol id="shield" width="100%" height="100%" viewBox="0 0 20 20">
      <path fill-rule="evenodd" clip-rule="evenodd" d="M2.8146 4.23542C2.5 4.68365 2.5 6.01597 2.5 8.68063V9.99288C2.5 14.6913 6.03247 16.9713 8.2488 17.9395C8.85001 18.2021 9.15062 18.3334 10 18.3334C10.8494 18.3334 11.15 18.2021 11.7512 17.9395C13.9675 16.9713 17.5 14.6913 17.5 9.99288V8.68063C17.5 6.01597 17.5 4.68365 17.1854 4.23542C16.8708 3.7872 15.6181 3.35838 13.1126 2.50074L12.6352 2.33735C11.3292 1.89028 10.6762 1.66675 10 1.66675C9.32384 1.66675 8.67082 1.89028 7.36477 2.33735L6.88743 2.50074C4.38194 3.35838 3.12919 3.7872 2.8146 4.23542ZM12.5495 8.74967C12.7794 8.49219 12.7571 8.0971 12.4996 7.8672C12.2421 7.63731 11.847 7.65967 11.6171 7.91715L9.10714 10.7283L8.38288 9.91715C8.15298 9.65967 7.75789 9.63731 7.50041 9.8672C7.24293 10.0971 7.22056 10.4922 7.45046 10.7497L8.64093 12.083C8.75951 12.2158 8.9291 12.2917 9.10714 12.2917C9.28518 12.2917 9.45478 12.2158 9.57335 12.083L12.5495 8.74967Z" fill="currentColor" />
    </symbol>

    <symbol id="clipboard" width="100%" height="100%" viewBox="0 0 20 20">
      <path d="M7.91667 1.66675C7.22631 1.66675 6.66667 2.22639 6.66667 2.91675V3.75008C6.66667 4.44044 7.22631 5.00008 7.91667 5.00008H12.0833C12.7737 5.00008 13.3333 4.44044 13.3333 3.75008V2.91675C13.3333 2.22639 12.7737 1.66675 12.0833 1.66675H7.91667Z" fill="currentColor" />
      <path fill-rule="evenodd" clip-rule="evenodd" d="M5.41667 3.36393C4.36841 3.42274 3.70665 3.58978 3.23223 4.0642C2.5 4.79643 2.5 5.97494 2.5 8.33197V13.332C2.5 15.689 2.5 16.8675 3.23223 17.5997C3.96447 18.332 5.14298 18.332 7.5 18.332H12.5C14.857 18.332 16.0355 18.332 16.7678 17.5997C17.5 16.8675 17.5 15.689 17.5 13.332V8.33197C17.5 5.97494 17.5 4.79643 16.7678 4.0642C16.2933 3.58978 15.6316 3.42274 14.5833 3.36393V3.75008C14.5833 5.13079 13.464 6.25008 12.0833 6.25008H7.91667C6.53595 6.25008 5.41667 5.13079 5.41667 3.75008V3.36393ZM12.9265 10.457C13.1788 10.2215 13.1924 9.82598 12.9569 9.57363C12.7214 9.32129 12.3259 9.30765 12.0736 9.54317L8.92857 12.4785L7.92645 11.5432C7.67411 11.3077 7.27861 11.3213 7.04309 11.5736C6.80757 11.826 6.82121 12.2215 7.07355 12.457L8.50212 13.7903C8.74225 14.0144 9.11489 14.0144 9.35502 13.7903L12.9265 10.457Z" fill="currentColor" />
    </symbol>

    <symbol id="heart" width="100%" height="100%" viewBox="0 0 20 20">
      <path d="M13.3334 5.00008C13.3334 6.84103 11.841 8.33341 10.0001 8.33341C8.15913 8.33341 6.66675 6.84103 6.66675 5.00008C6.66675 3.15913 8.15913 1.66675 10.0001 1.66675C11.841 1.66675 13.3334 3.15913 13.3334 5.00008Z" fill="currentColor" />
      <path d="M13.0651 11.2522C12.6709 11.257 12.3034 11.2714 11.9832 11.3144C11.4474 11.3865 10.861 11.5586 10.3765 12.0432C9.89199 12.5277 9.71983 13.1141 9.6478 13.6498C9.58308 14.1313 9.58317 14.7195 9.58326 15.3449V15.4882C9.58317 16.1137 9.58308 16.7019 9.6478 17.1833C9.69835 17.5593 9.7982 17.9601 10.0207 18.3332C10.0138 18.3333 10.0068 18.3333 9.99992 18.3333C3.33325 18.3333 3.33325 16.6543 3.33325 14.5833C3.33325 12.5122 6.31802 10.8333 9.99992 10.8333C11.1051 10.8333 12.1474 10.9845 13.0651 11.2522Z" fill="currentColor" />
      <path fill-rule="evenodd" clip-rule="evenodd" d="M11.2604 17.9062C11.6875 18.3333 12.375 18.3333 13.7499 18.3333C15.1248 18.3333 15.8123 18.3333 16.2394 17.9062C16.6666 17.4791 16.6666 16.7916 16.6666 15.4167C16.6666 14.0417 16.6666 13.3543 16.2394 12.9271C15.8123 12.5 15.1248 12.5 13.7499 12.5C12.375 12.5 11.6875 12.5 11.2604 12.9271C10.8333 13.3543 10.8333 14.0417 10.8333 15.4167C10.8333 16.7916 10.8333 17.4791 11.2604 17.9062ZM12.9387 16.6471C12.3537 16.2281 11.6666 15.7361 11.6666 14.8832C11.6666 13.9415 12.8125 13.2738 13.7499 14.179C14.6874 13.2738 15.8333 13.9415 15.8333 14.8832C15.8333 15.7361 15.1461 16.2281 14.5611 16.6471C14.5003 16.6906 14.4406 16.7333 14.3829 16.7756C14.1666 16.9341 13.9583 17.0833 13.7499 17.0833C13.5416 17.0833 13.3333 16.9341 13.1169 16.7756C13.0592 16.7333 12.9995 16.6906 12.9387 16.6471Z" fill="currentColor" />
    </symbol>

    <symbol id="bill" width="100%" height="100%" viewBox="0 0 20 20">
      <path fill-rule="evenodd" clip-rule="evenodd" d="M16.5625 17.1597C16.0278 16.7061 15.2222 16.7061 14.6875 17.1597C14.1528 17.6134 13.3472 17.6134 12.8125 17.1597C12.2778 16.7061 11.4722 16.7061 10.9375 17.1597C10.4028 17.6134 9.59716 17.6134 9.0625 17.1597C8.52784 16.7061 7.72216 16.7061 7.1875 17.1597C6.65284 17.6134 5.84716 17.6134 5.3125 17.1597C4.77784 16.7061 3.97216 16.7061 3.4375 17.1597C3.07424 17.468 2.5 17.2218 2.5 16.7578V3.24216C2.5 2.77819 3.07424 2.53202 3.4375 2.84026C3.97216 3.29395 4.77784 3.29395 5.3125 2.84026C5.84716 2.38658 6.65284 2.38658 7.1875 2.84026C7.72216 3.29395 8.52784 3.29395 9.0625 2.84026C9.59716 2.38658 10.4028 2.38658 10.9375 2.84026C11.4722 3.29395 12.2778 3.29395 12.8125 2.84026C13.3472 2.38658 14.1528 2.38658 14.6875 2.84026C15.2222 3.29395 16.0278 3.29395 16.5625 2.84026C16.9258 2.53202 17.5 2.77819 17.5 3.24216V16.7578C17.5 17.2218 16.9258 17.468 16.5625 17.1597ZM5.625 10C5.625 9.65482 5.90482 9.375 6.25 9.375H13.75C14.0952 9.375 14.375 9.65482 14.375 10C14.375 10.3452 14.0952 10.625 13.75 10.625H6.25C5.90482 10.625 5.625 10.3452 5.625 10ZM6.25 6.45833C5.90482 6.45833 5.625 6.73816 5.625 7.08333C5.625 7.42851 5.90482 7.70833 6.25 7.70833H13.75C14.0952 7.70833 14.375 7.42851 14.375 7.08333C14.375 6.73816 14.0952 6.45833 13.75 6.45833H6.25ZM5.625 12.9167C5.625 12.5715 5.90482 12.2917 6.25 12.2917H13.75C14.0952 12.2917 14.375 12.5715 14.375 12.9167C14.375 13.2618 14.0952 13.5417 13.75 13.5417H6.25C5.90482 13.5417 5.625 13.2618 5.625 12.9167Z" fill="currentColor" />
    </symbol>

    <symbol id="time" width="100%" height="100%" viewBox="0 0 20 20">
      <path fill-rule="evenodd" clip-rule="evenodd" d="M4.33196 2.7494C4.8338 1.66675 6.55589 1.66675 10.0001 1.66675C13.4443 1.66675 15.1664 1.66675 15.6682 2.7494C15.7113 2.84246 15.7477 2.93913 15.777 3.03849C16.1179 4.19449 14.9002 5.53434 12.4648 8.21403L10.8334 10.0001L12.4648 11.7861C14.9002 14.4658 16.1179 15.8057 15.777 16.9617C15.7477 17.061 15.7113 17.1577 15.6682 17.2508C15.1664 18.3334 13.4443 18.3334 10.0001 18.3334C6.55589 18.3334 4.8338 18.3334 4.33196 17.2508C4.28882 17.1577 4.25243 17.061 4.22313 16.9617C3.88222 15.8057 5.09992 14.4658 7.53533 11.7861L9.16675 10.0001L7.53533 8.21403C5.09992 5.53434 3.88222 4.19449 4.22313 3.03849C4.25243 2.93913 4.28882 2.84246 4.33196 2.7494ZM8.33342 14.7917C7.98824 14.7917 7.70841 15.0716 7.70841 15.4167C7.70841 15.7619 7.98824 16.0417 8.33342 16.0417H11.6667C12.0119 16.0417 12.2917 15.7619 12.2917 15.4167C12.2917 15.0716 12.0119 14.7917 11.6667 14.7917H8.33342ZM7.70841 4.58341C7.70841 4.23824 7.98824 3.95841 8.33342 3.95841H11.6667C12.0119 3.95841 12.2917 4.23824 12.2917 4.58341C12.2917 4.92859 12.0119 5.20841 11.6667 5.20841H8.33342C7.98824 5.20841 7.70841 4.92859 7.70841 4.58341Z" fill="currentColor" />
    </symbol>

    <symbol id="mark" width="100%" height="100%" viewBox="0 0 20 20">
      <path d="M13.4038 2.49104C13.3568 2.49621 13.3096 2.49994 13.2624 2.49994H6.73767C6.69041 2.49994 6.64325 2.49621 6.59627 2.49104C6.2794 2.45617 5.95843 2.49024 5.65548 2.59125C5.33007 2.69976 5.03438 2.88252 4.79183 3.12508C4.54927 3.36763 4.36651 3.66332 4.258 3.98874C4.15699 4.29168 4.12292 4.61265 4.15779 4.92952C4.16296 4.9765 4.16669 5.02366 4.16669 5.07092V15.7768C4.16669 16.5446 4.99617 17.026 5.66283 16.645L9.50388 14.4501C9.81132 14.2744 10.1887 14.2744 10.4962 14.4501L14.3372 16.645C15.0039 17.026 15.8334 16.5446 15.8334 15.7768V5.07092C15.8334 5.02366 15.8371 4.9765 15.8423 4.92952C15.8771 4.61265 15.8431 4.29168 15.742 3.98874C15.6335 3.66332 15.4508 3.36763 15.2082 3.12508C14.9657 2.88252 14.67 2.69976 14.3446 2.59125C14.0416 2.49024 13.7206 2.45617 13.4038 2.49104ZM12.8184 8.19494L11.7675 9.19494C11.7298 9.23065 11.7016 9.27514 11.6853 9.32444C11.669 9.37374 11.6652 9.42631 11.6742 9.47744L11.9142 10.8483C11.924 10.9113 11.9161 10.9758 11.8915 11.0346C11.8668 11.0935 11.8264 11.1443 11.7746 11.1815C11.7228 11.2187 11.6617 11.2409 11.598 11.2454C11.5344 11.25 11.4708 11.2369 11.4142 11.2074L10.1542 10.5591C10.1074 10.5354 10.0558 10.523 10.0034 10.523C9.95094 10.523 9.89926 10.5354 9.85252 10.5591L8.59336 11.2074C8.53655 11.2388 8.47207 11.2536 8.40727 11.2501C8.34247 11.2467 8.27994 11.2251 8.2268 11.1878C8.17366 11.1506 8.13204 11.0992 8.10668 11.0394C8.08133 10.9797 8.07324 10.914 8.08335 10.8499L8.32336 9.47994C8.33235 9.42881 8.32854 9.37624 8.31225 9.32694C8.29596 9.27764 8.26771 9.23315 8.23002 9.19744L7.17919 8.19744C7.13582 8.15604 7.1051 8.10318 7.0906 8.045C7.0761 7.98683 7.07841 7.92573 7.09727 7.86882C7.11612 7.8119 7.15074 7.76151 7.19711 7.7235C7.24348 7.68549 7.29968 7.66143 7.35919 7.65411L8.81169 7.44744C8.86343 7.4403 8.91269 7.42083 8.95533 7.39066C8.99797 7.36049 9.03273 7.32052 9.05669 7.27411L9.68586 6.02411C9.7154 5.96694 9.76011 5.91899 9.81508 5.88553C9.87005 5.85206 9.93317 5.83436 9.99752 5.83436C10.0619 5.83436 10.125 5.85206 10.18 5.88553C10.2349 5.91899 10.2796 5.96694 10.3092 6.02411L10.9384 7.27411C10.9623 7.32052 10.9971 7.36049 11.0397 7.39066C11.0823 7.42083 11.1316 7.4403 11.1834 7.44744L12.6359 7.65411C12.6951 7.66141 12.751 7.68528 12.7972 7.72297C12.8434 7.76065 12.8781 7.81063 12.8971 7.86715C12.9162 7.92366 12.9189 7.98441 12.905 8.0424C12.8911 8.10039 12.861 8.15327 12.8184 8.19494Z" fill="currentColor" />
    </symbol>

    <symbol id="settings" width="100%" height="100%" viewBox="0 0 20 20">
      <path fill-rule="evenodd" clip-rule="evenodd" d="M11.899 1.79362C11.5904 1.66675 11.1991 1.66675 10.4167 1.66675C9.63418 1.66675 9.24294 1.66675 8.93433 1.79362C8.52284 1.96277 8.19591 2.28723 8.02546 2.69561C7.94766 2.88203 7.91721 3.09883 7.90529 3.41507C7.88778 3.87982 7.64763 4.30999 7.2418 4.54252C6.83598 4.77505 6.34053 4.76636 5.92624 4.54905C5.64432 4.40116 5.43991 4.31893 5.23832 4.2926C4.79674 4.2349 4.35015 4.35366 3.9968 4.62275C3.73178 4.82456 3.53616 5.16083 3.14492 5.83336C2.75368 6.50589 2.55806 6.84215 2.51446 7.17084C2.45632 7.60908 2.57598 8.0523 2.84712 8.40298C2.97088 8.56305 3.14481 8.6976 3.41475 8.86594C3.8116 9.1134 4.06693 9.53496 4.06691 10.0001C4.06688 10.4652 3.81155 10.8867 3.41475 11.1341C3.14476 11.3025 2.97081 11.437 2.84704 11.5971C2.5759 11.9478 2.45624 12.391 2.51437 12.8293C2.55798 13.158 2.7536 13.4942 3.14484 14.1667C3.53608 14.8393 3.7317 15.1755 3.99671 15.3774C4.35007 15.6464 4.79666 15.7652 5.23824 15.7075C5.43981 15.6812 5.64421 15.599 5.92611 15.4511C6.34043 15.2338 6.83592 15.2251 7.24177 15.4576C7.64762 15.6902 7.88778 16.1204 7.90529 16.5851C7.91721 16.9014 7.94766 17.1181 8.02546 17.3046C8.19591 17.7129 8.52284 18.0374 8.93433 18.2065C9.24294 18.3334 9.63418 18.3334 10.4167 18.3334C11.1991 18.3334 11.5904 18.3334 11.899 18.2065C12.3105 18.0374 12.6374 17.7129 12.8079 17.3046C12.8857 17.1181 12.9161 16.9013 12.928 16.5851C12.9456 16.1203 13.1857 15.6902 13.5915 15.4576C13.9973 15.225 14.4928 15.2337 14.9072 15.451C15.1891 15.5989 15.3934 15.6811 15.595 15.7075C16.0366 15.7651 16.4832 15.6464 16.8365 15.3773C17.1016 15.1755 17.2972 14.8392 17.6884 14.1667C18.0797 13.4942 18.2753 13.1579 18.3189 12.8292C18.377 12.391 18.2573 11.9478 17.9862 11.5971C17.8624 11.437 17.6885 11.3024 17.4185 11.1341C17.0217 10.8866 16.7664 10.4651 16.7664 10C16.7664 9.53496 17.0218 9.11348 17.4185 8.86607C17.6885 8.6977 17.8625 8.56313 17.9863 8.40304C18.2574 8.05235 18.3771 7.60914 18.319 7.17089C18.2754 6.84221 18.0797 6.50594 17.6885 5.83342C17.2973 5.16089 17.1016 4.82462 16.8366 4.6228C16.4833 4.35372 16.0367 4.23496 15.5951 4.29265C15.3935 4.31899 15.1891 4.40121 14.9072 4.54908C14.4929 4.76641 13.9974 4.7751 13.5916 4.54255C13.1857 4.31 12.9456 3.8798 12.928 3.41503C12.9161 3.09881 12.8857 2.88202 12.8079 2.69561C12.6374 2.28723 12.3105 1.96277 11.899 1.79362ZM10.4167 12.5001C11.8079 12.5001 12.9357 11.3808 12.9357 10.0001C12.9357 8.61937 11.8079 7.50008 10.4167 7.50008C9.02544 7.50008 7.89763 8.61937 7.89763 10.0001C7.89763 11.3808 9.02544 12.5001 10.4167 12.5001Z" fill="currentColor" />
    </symbol>

    <symbol id="checked" width="100%" height="100%" viewBox="0 0 20 20">
      <path d="M16.1265 6.34729L12.8275 3.37821C11.8876 2.53231 11.4177 2.10937 10.8411 1.8881L10.8334 4.16684C10.8334 6.13102 10.8334 7.11312 11.4436 7.72331C12.0538 8.3335 13.0359 8.3335 15.0001 8.3335H17.9835C17.6814 7.74665 17.1404 7.25978 16.1265 6.34729Z" fill="currentColor" />
      <path fill-rule="evenodd" clip-rule="evenodd" d="M11.6667 18.3334H8.33341C5.19072 18.3334 3.61937 18.3334 2.64306 17.3571C1.66675 16.3808 1.66675 14.8094 1.66675 11.6667V8.33341C1.66675 5.19072 1.66675 3.61937 2.64306 2.64306C3.61937 1.66675 5.19899 1.66675 8.35824 1.66675C8.86325 1.66675 9.26791 1.66675 9.60842 1.68063C9.59721 1.74724 9.59134 1.81519 9.59111 1.88389L9.58341 4.24589C9.58334 5.16014 9.58328 5.96812 9.67084 6.61938C9.76575 7.32531 9.98367 8.03113 10.5597 8.60719C11.1358 9.18325 11.8416 9.40117 12.5475 9.49608C13.1988 9.58364 14.0068 9.58358 14.921 9.58351L15.0001 9.5835H18.2979C18.3334 10.0287 18.3334 10.5752 18.3334 11.3025V11.6667C18.3334 14.8094 18.3334 16.3808 17.3571 17.3571C16.3808 18.3334 14.8094 18.3334 11.6667 18.3334ZM8.74864 12.033C9.00663 12.2623 9.02987 12.6573 8.80055 12.9153L6.57832 15.4153C6.45972 15.5487 6.28972 15.6251 6.11119 15.6251C5.93267 15.6251 5.76267 15.5487 5.64406 15.4153L4.53295 14.1653C4.30363 13.9073 4.32687 13.5123 4.58485 13.283C4.84284 13.0536 5.23789 13.0769 5.46721 13.3349L6.11119 14.0593L7.86628 12.0849C8.09561 11.8269 8.49065 11.8036 8.74864 12.033Z" fill="currentColor" />
    </symbol>

    <symbol id="warning" width="100%" height="100%" viewBox="0 0 24 24">
      <circle cx="12" cy="12" r="10" fill="transparent" stroke="currentColor" stroke-width="1.5" />
      <path d="M12 7V13" fill="transparent" stroke="currentColor" stroke-width="1.5" stroke-linecap="round" />
      <circle cx="12" cy="16" r="1" fill="currentColor" />
    </symbol>

    <symbol id="eye-visible" width="100%" height="100%" viewBox="0 0 24 24">
      <path fill-rule="evenodd" clip-rule="evenodd" d="M12 8.25C9.92893 8.25 8.25 9.92893 8.25 12C8.25 14.0711 9.92893 15.75 12 15.75C14.0711 15.75 15.75 14.0711 15.75 12C15.75 9.92893 14.0711 8.25 12 8.25ZM9.75 12C9.75 10.7574 10.7574 9.75 12 9.75C13.2426 9.75 14.25 10.7574 14.25 12C14.25 13.2426 13.2426 14.25 12 14.25C10.7574 14.25 9.75 13.2426 9.75 12Z" fill="currentColor" />
      <path fill-rule="evenodd" clip-rule="evenodd" d="M12 3.25C7.48587 3.25 4.44529 5.9542 2.68057 8.24686L2.64874 8.2882C2.24964 8.80653 1.88206 9.28392 1.63269 9.8484C1.36564 10.4529 1.25 11.1117 1.25 12C1.25 12.8883 1.36564 13.5471 1.63269 14.1516C1.88206 14.7161 2.24964 15.1935 2.64875 15.7118L2.68057 15.7531C4.44529 18.0458 7.48587 20.75 12 20.75C16.5141 20.75 19.5547 18.0458 21.3194 15.7531L21.3512 15.7118C21.7504 15.1935 22.1179 14.7161 22.3673 14.1516C22.6344 13.5471 22.75 12.8883 22.75 12C22.75 11.1117 22.6344 10.4529 22.3673 9.8484C22.1179 9.28391 21.7504 8.80652 21.3512 8.28818L21.3194 8.24686C19.5547 5.9542 16.5141 3.25 12 3.25ZM3.86922 9.1618C5.49864 7.04492 8.15036 4.75 12 4.75C15.8496 4.75 18.5014 7.04492 20.1308 9.1618C20.5694 9.73159 20.8263 10.0721 20.9952 10.4545C21.1532 10.812 21.25 11.2489 21.25 12C21.25 12.7511 21.1532 13.188 20.9952 13.5455C20.8263 13.9279 20.5694 14.2684 20.1308 14.8382C18.5014 16.9551 15.8496 19.25 12 19.25C8.15036 19.25 5.49864 16.9551 3.86922 14.8382C3.43064 14.2684 3.17374 13.9279 3.00476 13.5455C2.84684 13.188 2.75 12.7511 2.75 12C2.75 11.2489 2.84684 10.812 3.00476 10.4545C3.17374 10.0721 3.43063 9.73159 3.86922 9.1618Z" fill="currentColor" />
    </symbol>

    <symbol id="eye-hidden" width="100%" height="100%" viewBox="0 0 24 24">
      <path fill-rule="evenodd" clip-rule="evenodd" d="M22.2954 6.31059C22.6761 6.47376 22.8524 6.91467 22.6893 7.29539L21.9999 6.99995C22.6893 7.29539 22.6894 7.29521 22.6893 7.29539L22.6886 7.29707L22.6875 7.29955L22.6843 7.30691L22.6736 7.33099C22.6646 7.35112 22.6518 7.37934 22.6352 7.41502C22.6019 7.48637 22.5533 7.58769 22.4888 7.7141C22.3599 7.96675 22.1675 8.32063 21.9084 8.73641C21.4828 9.41945 20.8724 10.2776 20.0619 11.1301L21.0303 12.0985C21.3231 12.3913 21.3231 12.8662 21.0303 13.1591C20.7374 13.452 20.2625 13.452 19.9696 13.1591L18.969 12.1585C18.3093 12.7112 17.5528 13.23 16.695 13.6562L17.6286 15.0909C17.8545 15.4381 17.7562 15.9027 17.409 16.1286C17.0618 16.3545 16.5972 16.2562 16.3713 15.909L15.2821 14.2351C14.5028 14.4896 13.659 14.6626 12.7499 14.7246V16.4999C12.7499 16.9142 12.4141 17.2499 11.9999 17.2499C11.5857 17.2499 11.2499 16.9142 11.2499 16.4999V14.7246C10.3689 14.6645 9.54909 14.5002 8.78982 14.2584L7.71575 15.9091C7.48984 16.2562 7.02526 16.3546 6.67807 16.1287C6.33089 15.9027 6.23257 15.4382 6.45847 15.091L7.37089 13.6887C6.5065 13.2666 5.74381 12.7501 5.07842 12.1982L4.11744 13.1592C3.82455 13.4521 3.34968 13.4521 3.05678 13.1592C2.76389 12.8663 2.76389 12.3914 3.05678 12.0985L3.98055 11.1748C3.15599 10.3151 2.53525 9.4465 2.10277 8.75462C1.83984 8.33398 1.6446 7.97559 1.51388 7.71964C1.44848 7.59157 1.3991 7.48889 1.36537 7.41658C1.3485 7.38042 1.33553 7.35183 1.32641 7.33143L1.31562 7.30704L1.31238 7.29959L1.31129 7.29708L1.31088 7.29613C1.31081 7.29595 1.31056 7.29539 1.99992 6.99995L1.31088 7.29613C1.14772 6.91541 1.32376 6.47376 1.70448 6.31059C2.08489 6.14756 2.52539 6.3235 2.68888 6.70357C2.68882 6.70344 2.68894 6.7037 2.68888 6.70357L2.68983 6.70576L2.69591 6.71947C2.7018 6.73267 2.7114 6.75386 2.72472 6.78243C2.75139 6.83959 2.79296 6.9262 2.84976 7.03742C2.96345 7.26004 3.13762 7.58022 3.37472 7.95955C3.85033 8.72042 4.57157 9.70704 5.55561 10.6215C6.42151 11.4263 7.48259 12.1675 8.75165 12.6558C9.70614 13.023 10.7854 13.2499 11.9999 13.2499C13.2416 13.2499 14.342 13.0127 15.3124 12.6308C16.5738 12.1343 17.6277 11.3882 18.4866 10.5819C19.4562 9.67191 20.1668 8.69511 20.6354 7.94315C20.869 7.56825 21.0405 7.25221 21.1525 7.03262C21.2085 6.9229 21.2494 6.83752 21.2757 6.78119C21.2888 6.75304 21.2983 6.73217 21.3041 6.71919L21.31 6.70571L21.3106 6.70451C21.3105 6.70461 21.3106 6.70441 21.3106 6.70451M22.2954 6.31059C21.9147 6.14746 21.4738 6.32399 21.3106 6.70451L22.2954 6.31059ZM2.68888 6.70357C2.68882 6.70344 2.68894 6.7037 2.68888 6.70357V6.70357Z" fill="currentColor" />
    </symbol>

    <symbol id="search" width="100%" height="100%" viewBox="0 0 24 24">
      <circle cx="11.5" cy="11.5" r="9.5" fill="transparent" stroke="currentColor" stroke-width="1.5" />
      <path d="M18.5 18.5L22 22" fill="transparent" stroke="currentColor" stroke-width="1.5" stroke-linecap="round" />
    </symbol>

    <symbol id="file" width="100%" height="100%" viewBox="0 0 48 48">
      <path d="M30.7859 8.10729L30.1169 8.85059L30.7859 8.10729ZM38.7034 15.2331L38.0345 15.9764L38.7034 15.2331ZM43.308 20.3082L42.3945 20.715L42.3945 20.715L43.308 20.3082ZM6.34315 41.6569L7.05025 40.9497H7.05025L6.34315 41.6569ZM41.6569 41.6569L40.9497 40.9497L41.6569 41.6569ZM28 44V43H20V44V45H28V44ZM4 28H5V20H4H3V28H4ZM44 27.1258H43V28H44H45V27.1258H44ZM30.7859 8.10729L30.1169 8.85059L38.0345 15.9764L38.7034 15.2331L39.3724 14.4898L31.4548 7.364L30.7859 8.10729ZM44 27.1258H45C45 23.7049 45.0202 21.6947 44.2215 19.9014L43.308 20.3082L42.3945 20.715C42.9798 22.0293 43 23.5283 43 27.1258H44ZM38.7034 15.2331L38.0345 15.9764C40.7085 18.383 41.8092 19.4008 42.3945 20.715L43.308 20.3082L44.2215 19.9014C43.4228 18.108 41.9151 16.7782 39.3724 14.4898L38.7034 15.2331ZM20.0596 4V5C23.1853 5 24.4895 5.01544 25.6602 5.46466L26.0184 4.53104L26.3767 3.59742C24.7796 2.98456 23.0339 3 20.0596 3V4ZM30.7859 8.10729L31.4548 7.364C29.2549 5.38409 27.9736 4.21022 26.3767 3.59742L26.0184 4.53104L25.6602 5.46466C26.831 5.91393 27.8054 6.7702 30.1169 8.85059L30.7859 8.10729ZM20 44V43C16.2005 43 13.4515 42.9979 11.3551 42.716C9.28745 42.438 8.00506 41.9046 7.05025 40.9497L6.34315 41.6569L5.63604 42.364C7.02438 43.7523 8.79918 44.3904 11.0886 44.6982C13.3492 45.0021 16.257 45 20 45V44ZM4 28H3C3 31.743 2.99788 34.6508 3.30181 36.9114C3.60961 39.2008 4.2477 40.9756 5.63604 42.364L6.34315 41.6569L7.05025 40.9497C6.09545 39.9949 5.56196 38.7126 5.28398 36.6449C5.00212 34.5485 5 31.7995 5 28H4ZM28 44V45C31.743 45 34.6508 45.0021 36.9114 44.6982C39.2008 44.3904 40.9756 43.7523 42.364 42.364L41.6569 41.6569L40.9497 40.9497C39.9949 41.9046 38.7126 42.438 36.6449 42.716C34.5485 42.9979 31.7995 43 28 43V44ZM44 28H43C43 31.7995 42.9979 34.5485 42.716 36.6449C42.438 38.7126 41.9046 39.9949 40.9497 40.9497L41.6569 41.6569L42.364 42.364C43.7523 40.9756 44.3904 39.2008 44.6982 36.9114C45.0021 34.6508 45 31.743 45 28H44ZM4 20H5C5 16.2005 5.00212 13.4515 5.28398 11.3551C5.56196 9.28745 6.09545 8.00506 7.05025 7.05025L6.34315 6.34315L5.63604 5.63604C4.2477 7.02438 3.60961 8.79918 3.30181 11.0886C2.99788 13.3492 3 16.257 3 20H4ZM20.0596 4V3C16.2967 3 13.3743 2.99789 11.1041 3.30173C8.80585 3.60932 7.02516 4.24692 5.63604 5.63604L6.34315 6.34315L7.05025 7.05025C8.00428 6.09623 9.29071 5.56226 11.3694 5.28406C13.4761 5.00211 16.2403 5 20.0596 5V4Z" fill="currentColor" />
      <path d="M26 5V10C26 14.714 26 17.0711 27.4645 18.5355C28.9289 20 31.286 20 36 20H44" fill="transparent" stroke="currentColor" stroke-width="2" />
      <path d="M17 37L17 27M17 27L13 30.75M17 27L21 30.75" fill="transparent" stroke="currentColor" stroke-width="2" stroke-linecap="round" stroke-linejoin="round" />
    </symbol>

    <symbol id="trash" width="100%" height="100%" viewBox="0 0 24 24">
      <path d="M20.5001 6H3.5" fill="transparent" stroke="currentColor" stroke-width="1.5" stroke-linecap="round" />
      <path d="M18.8327 8.5L18.3727 15.3991C18.1957 18.054 18.1073 19.3815 17.2422 20.1907C16.3772 21 15.0468 21 12.386 21H11.6127C8.95187 21 7.62146 21 6.75646 20.1907C5.89145 19.3815 5.80295 18.054 5.62596 15.3991L5.16602 8.5" fill="transparent" stroke="currentColor" stroke-width="1.5" stroke-linecap="round" />
      <path d="M9.5 11L10 16" fill="transparent" stroke="currentColor" stroke-width="1.5" stroke-linecap="round" />
      <path d="M14.5 11L14 16" fill="transparent" stroke="currentColor" stroke-width="1.5" stroke-linecap="round" />
      <path d="M6.5 6C6.55588 6 6.58382 6 6.60915 5.99936C7.43259 5.97849 8.15902 5.45491 8.43922 4.68032C8.44784 4.65649 8.45667 4.62999 8.47434 4.57697L8.57143 4.28571C8.65431 4.03708 8.69575 3.91276 8.75071 3.8072C8.97001 3.38607 9.37574 3.09364 9.84461 3.01877C9.96213 3 10.0932 3 10.3553 3H13.6447C13.9068 3 14.0379 3 14.1554 3.01877C14.6243 3.09364 15.03 3.38607 15.2493 3.8072C15.3043 3.91276 15.3457 4.03708 15.4286 4.28571L15.5257 4.57697C15.5433 4.62992 15.5522 4.65651 15.5608 4.68032C15.841 5.45491 16.5674 5.97849 17.3909 5.99936C17.4162 6 17.4441 6 17.5 6" fill="transparent" stroke="currentColor" stroke-width="1.5" />
    </symbol>

    <symbol id="telephone" width="100%" height="100%" viewBox="0 0 16 16">
      <path d="M10.3708 9.69847L10.0671 10.0181C10.0671 10.0181 9.34542 10.778 7.37541 8.70393C5.40541 6.62989 6.12714 5.87005 6.12714 5.87005L6.31835 5.66874C6.78938 5.17283 6.83379 4.37664 6.42283 3.7954L5.58217 2.60641C5.07352 1.887 4.09064 1.79197 3.50763 2.40576L2.46123 3.50742C2.17215 3.81177 1.97843 4.2063 2.00193 4.64396C2.06202 5.76364 2.54048 8.1727 5.21024 10.9835C8.04143 13.9642 10.6979 14.0826 11.7842 13.9754C12.1278 13.9415 12.4266 13.7562 12.6674 13.5027L13.6144 12.5056C14.2537 11.8326 14.0735 10.6788 13.2556 10.208L11.9819 9.47488C11.4448 9.16576 10.7905 9.25656 10.3708 9.69847Z" fill="currentColor" />
      <path d="M8.83958 1.25338C8.88371 0.98079 9.1414 0.795874 9.41399 0.840006C9.43087 0.843236 9.48516 0.853383 9.5136 0.859718C9.57049 0.872386 9.64984 0.891892 9.74878 0.920709C9.94663 0.978338 10.223 1.07327 10.5548 1.22536C11.219 1.52987 12.1028 2.06254 13.02 2.97974C13.9372 3.89694 14.4699 4.78081 14.7744 5.445C14.9265 5.77674 15.0214 6.05314 15.0791 6.251C15.1079 6.34993 15.1274 6.42929 15.1401 6.48617C15.1464 6.51462 15.151 6.53746 15.1543 6.55433L15.1581 6.57513C15.2022 6.84772 15.019 7.11607 14.7464 7.1602C14.4746 7.2042 14.2185 7.02018 14.1733 6.74887C14.1719 6.74158 14.1681 6.72201 14.164 6.70355C14.1557 6.66663 14.1415 6.60808 14.119 6.53065C14.0738 6.37575 13.9955 6.14553 13.8654 5.86175C13.6055 5.29488 13.1382 4.51209 12.3129 3.68684C11.4877 2.8616 10.7049 2.39427 10.138 2.13439C9.85424 2.00428 9.62402 1.92593 9.46913 1.88081C9.39169 1.85826 9.29436 1.83592 9.25744 1.82769C8.98612 1.78248 8.79557 1.5252 8.83958 1.25338Z" fill="currentColor" />
      <path fill-rule="evenodd" clip-rule="evenodd" d="M8.99041 3.55303C9.06627 3.28751 9.34301 3.13376 9.60853 3.20963L9.47117 3.69039C9.60853 3.20963 9.60853 3.20963 9.60853 3.20963L9.60949 3.2099L9.61051 3.2102L9.61274 3.21085L9.6179 3.21239L9.63109 3.2165C9.64115 3.21971 9.6537 3.2239 9.66867 3.22921C9.69861 3.23983 9.73818 3.25494 9.78672 3.27575C9.88384 3.31737 10.0166 3.38165 10.1796 3.47812C10.5059 3.67125 10.9513 3.99203 11.4746 4.51535C11.998 5.03866 12.3187 5.48412 12.5119 5.81043C12.6083 5.97343 12.6726 6.10614 12.7142 6.20327C12.735 6.2518 12.7502 6.29138 12.7608 6.32132C12.7661 6.33629 12.7703 6.34884 12.7735 6.35889L12.7776 6.37208L12.7791 6.37725L12.7798 6.37947L12.7801 6.38049C12.7801 6.38049 12.7804 6.38145 12.2996 6.51881L12.7804 6.38145C12.8562 6.64697 12.7025 6.92371 12.437 6.99958C12.1737 7.07479 11.8994 6.92429 11.8208 6.66291L11.8183 6.65573C11.8148 6.64571 11.8074 6.62599 11.7951 6.59719C11.7704 6.53963 11.7257 6.44548 11.6513 6.31975C11.5026 6.06859 11.2342 5.68909 10.7675 5.22245C10.3009 4.75582 9.9214 4.48735 9.67024 4.3387C9.54451 4.26429 9.45036 4.21956 9.3928 4.19489C9.364 4.18255 9.34428 4.17519 9.33426 4.17164L9.32707 4.16917C9.0657 4.09059 8.91519 3.81629 8.99041 3.55303Z" fill="currentColor" />
    </symbol>

    <symbol id="document" width="100%" height="100%" viewBox="0 0 20 20">
      <path d="M1.45825 8.33379V11.6671C1.45825 14.0241 1.45825 15.2027 2.19048 15.9349C2.3716 16.116 2.58002 16.2523 2.82682 16.3549C2.82122 16.3179 2.81593 16.2807 2.81093 16.2435C2.70813 15.4789 2.70819 14.5241 2.70825 13.416L2.70825 6.66708L2.70825 6.58479C2.70819 5.47668 2.70813 4.52191 2.81093 3.75734C2.81593 3.72015 2.82121 3.68303 2.8268 3.646C2.58001 3.74859 2.3716 3.88491 2.19048 4.06602C1.45825 4.79825 1.45825 5.97677 1.45825 8.33379Z" fill="currentColor" />
      <path d="M18.1249 8.33379V11.6671C18.1249 14.0241 18.1249 15.2027 17.3927 15.9349C17.2116 16.116 17.0032 16.2523 16.7564 16.3549C16.7619 16.3179 16.7672 16.2807 16.7722 16.2435C16.875 15.4789 16.875 14.5241 16.8749 13.416V6.5848C16.875 5.47669 16.875 4.52192 16.7722 3.75734C16.7672 3.72015 16.762 3.68303 16.7564 3.646C17.0032 3.74859 17.2116 3.88491 17.3927 4.06602C18.1249 4.79825 18.1249 5.97677 18.1249 8.33379Z" fill="currentColor" />
      <path fill-rule="evenodd" clip-rule="evenodd" d="M4.69049 2.39874C3.95825 3.13097 3.95825 4.30948 3.95825 6.6665V13.3332C3.95825 15.6902 3.95825 16.8687 4.69049 17.6009C5.42272 18.3332 6.60123 18.3332 8.95825 18.3332H10.6249C12.9819 18.3332 14.1605 18.3332 14.8927 17.6009C15.6249 16.8687 15.6249 15.6902 15.6249 13.3332V6.6665C15.6249 4.30948 15.6249 3.13097 14.8927 2.39874C14.1605 1.6665 12.9819 1.6665 10.6249 1.6665H8.95825C6.60123 1.6665 5.42272 1.6665 4.69049 2.39874ZM6.66659 14.1665C6.66659 13.8213 6.94641 13.5415 7.29159 13.5415H9.79159C10.1368 13.5415 10.4166 13.8213 10.4166 14.1665C10.4166 14.5117 10.1368 14.7915 9.79159 14.7915H7.29159C6.94641 14.7915 6.66659 14.5117 6.66659 14.1665ZM7.29159 10.2082C6.94641 10.2082 6.66659 10.488 6.66659 10.8332C6.66659 11.1783 6.94641 11.4582 7.29159 11.4582H12.2916C12.6368 11.4582 12.9166 11.1783 12.9166 10.8332C12.9166 10.488 12.6368 10.2082 12.2916 10.2082H7.29159ZM6.66659 7.49984C6.66659 7.15466 6.94641 6.87484 7.29159 6.87484H12.2916C12.6368 6.87484 12.9166 7.15466 12.9166 7.49984C12.9166 7.84502 12.6368 8.12484 12.2916 8.12484H7.29159C6.94641 8.12484 6.66659 7.84502 6.66659 7.49984Z" fill="currentColor" />
    </symbol>

    <symbol id="checkbox" width="100%" height="100%" viewBox="0 0 42 42">
      <path fill-rule="evenodd" clip-rule="evenodd" d="M21 38.5C12.7504 38.5 8.62563 38.5 6.06282 35.9372C3.5 33.3744 3.5 29.2496 3.5 21C3.5 12.7504 3.5 8.62563 6.06282 6.06282C8.62563 3.5 12.7504 3.5 21 3.5C29.2496 3.5 33.3744 3.5 35.9372 6.06282C38.5 8.62563 38.5 12.7504 38.5 21C38.5 29.2496 38.5 33.3744 35.9372 35.9372C33.3744 38.5 29.2496 38.5 21 38.5ZM28.0531 15.6969C28.5656 16.2095 28.5656 17.0405 28.0531 17.5531L19.3031 26.3031C18.7905 26.8156 17.9595 26.8156 17.4469 26.3031L13.9469 22.8031C13.4344 22.2905 13.4344 21.4595 13.9469 20.9469C14.4595 20.4344 15.2905 20.4344 15.8031 20.9469L18.375 23.5188L26.1969 15.6969C26.7095 15.1844 27.5405 15.1844 28.0531 15.6969Z" fill="currentColor" />
    </symbol>

    <symbol id="check-circle" width="100%" height="100%" viewBox="0 0 20 20">
      <path fill-rule="evenodd" clip-rule="evenodd" d="M18.3346 9.99996C18.3346 14.6023 14.6037 18.3333 10.0013 18.3333C5.39893 18.3333 1.66797 14.6023 1.66797 9.99996C1.66797 5.39759 5.39893 1.66663 10.0013 1.66663C14.6037 1.66663 18.3346 5.39759 18.3346 9.99996ZM13.3599 7.47468C13.604 7.71876 13.604 8.11449 13.3599 8.35857L9.19324 12.5252C8.94917 12.7693 8.55344 12.7693 8.30936 12.5252L6.64269 10.8586C6.39862 10.6145 6.39862 10.2188 6.64269 9.97468C6.88677 9.73061 7.2825 9.73061 7.52658 9.97468L8.7513 11.1994L10.6137 9.33705L12.476 7.47468C12.7201 7.23061 13.1158 7.23061 13.3599 7.47468Z" fill="currentColor" />
    </symbol>

    <symbol id="point" width="100%" height="100%" viewBox="0 0 24 24">
      <path fill-rule="evenodd" clip-rule="evenodd" d="M12 2C7.58172 2 4 6.00258 4 10.5C4 14.9622 6.55332 19.8124 10.5371 21.6744C11.4657 22.1085 12.5343 22.1085 13.4629 21.6744C17.4467 19.8124 20 14.9622 20 10.5C20 6.00258 16.4183 2 12 2ZM12 12C13.1046 12 14 11.1046 14 10C14 8.89543 13.1046 8 12 8C10.8954 8 10 8.89543 10 10C10 11.1046 10.8954 12 12 12Z" fill="currentColor" />
    </symbol>

  </defs>
</svg>